<?xml version="1.0" encoding="UTF-8" standalone="no"?>
<!-- Created with Inkscape (http://www.inkscape.org/) -->

<svg
   xmlns:dc="http://purl.org/dc/elements/1.1/"
   xmlns:cc="http://creativecommons.org/ns#"
   xmlns:rdf="http://www.w3.org/1999/02/22-rdf-syntax-ns#"
   xmlns:svg="http://www.w3.org/2000/svg"
   xmlns="http://www.w3.org/2000/svg"
   xmlns:xlink="http://www.w3.org/1999/xlink"
   xmlns:sodipodi="http://sodipodi.sourceforge.net/DTD/sodipodi-0.dtd"
   xmlns:inkscape="http://www.inkscape.org/namespaces/inkscape"
   width="24.525043mm"
   height="38.304104mm"
   viewBox="0 0 24.525043 38.304104"
   version="1.1"
   id="svg8"
   sodipodi:docname="ketomojo.svg"
   inkscape:version="0.92.2 (5c3e80d, 2017-08-06)">
  <defs
     id="defs2">
    <linearGradient
       inkscape:collect="always"
       id="linearGradient5222">
      <stop
         style="stop-color:#688e44;stop-opacity:1"
         offset="0"
         id="stop5214" />
      <stop
         id="stop5216"
         offset="0.5"
         style="stop-color:#688e44;stop-opacity:1" />
      <stop
         style="stop-color:#90b86b;stop-opacity:1"
         offset="0.85000002"
         id="stop5218" />
      <stop
         style="stop-color:#688e44;stop-opacity:1"
         offset="1"
         id="stop5220" />
    </linearGradient>
    <linearGradient
       id="linearGradient5190"
       inkscape:collect="always">
      <stop
         id="stop5186"
         offset="0"
         style="stop-color:#202020;stop-opacity:1" />
      <stop
         style="stop-color:#202020;stop-opacity:1"
         offset="0.53875995"
         id="stop5192" />
      <stop
         id="stop5194"
         offset="0.70906049"
         style="stop-color:#777777;stop-opacity:1" />
      <stop
         id="stop5188"
         offset="1"
         style="stop-color:#202020;stop-opacity:1" />
    </linearGradient>
    <linearGradient
       id="linearGradient5176"
       inkscape:collect="always">
      <stop
         id="stop5172"
         offset="0"
         style="stop-color:#aeaeae;stop-opacity:1" />
      <stop
         id="stop5174"
         offset="1"
         style="stop-color:#eeeeee;stop-opacity:1" />
    </linearGradient>
    <filter
       style="color-interpolation-filters:sRGB"
       inkscape:label="Drop Shadow"
       id="filter5394">
      <feFlood
         flood-opacity="0.498039"
         flood-color="rgb(0,0,0)"
         result="flood"
         id="feFlood5384" />
      <feComposite
         in="flood"
         in2="SourceGraphic"
         operator="in"
         result="composite1"
         id="feComposite5386" />
      <feGaussianBlur
         in="composite1"
         stdDeviation="1"
         result="blur"
         id="feGaussianBlur5388" />
      <feOffset
         dx="2"
         dy="2"
         result="offset"
         id="feOffset5390" />
      <feComposite
         in="SourceGraphic"
         in2="offset"
         operator="over"
         result="fbSourceGraphic"
         id="feComposite5392" />
      <feColorMatrix
         result="fbSourceGraphicAlpha"
         in="fbSourceGraphic"
         values="0 0 0 -1 0 0 0 0 -1 0 0 0 0 -1 0 0 0 0 1 0"
         id="feColorMatrix5396" />
      <feFlood
         id="feFlood5398"
         flood-opacity="0.498039"
         flood-color="rgb(0,0,0)"
         result="flood"
         in="fbSourceGraphic" />
      <feComposite
         in2="fbSourceGraphic"
         id="feComposite5400"
         in="flood"
         operator="in"
         result="composite1" />
      <feGaussianBlur
         id="feGaussianBlur5402"
         in="composite1"
         stdDeviation="1"
         result="blur" />
      <feOffset
         id="feOffset5404"
         dx="2"
         dy="2"
         result="offset" />
      <feComposite
         in2="offset"
         id="feComposite5406"
         in="fbSourceGraphic"
         operator="over"
         result="composite2" />
    </filter>
    <filter
       style="color-interpolation-filters:sRGB"
       inkscape:label="Drop Shadow"
       id="filter5718">
      <feFlood
         flood-opacity="0.498039"
         flood-color="rgb(0,0,0)"
         result="flood"
         id="feFlood5708" />
      <feComposite
         in="flood"
         in2="SourceGraphic"
         operator="in"
         result="composite1"
         id="feComposite5710" />
      <feGaussianBlur
         in="composite1"
         stdDeviation="1"
         result="blur"
         id="feGaussianBlur5712" />
      <feOffset
         dx="2"
         dy="2"
         result="offset"
         id="feOffset5714" />
      <feComposite
         in="SourceGraphic"
         in2="offset"
         operator="over"
         result="composite2"
         id="feComposite5716" />
    </filter>
    <filter
       style="color-interpolation-filters:sRGB"
       inkscape:label="Drop Shadow"
       id="filter5880">
      <feFlood
         flood-opacity="0.498039"
         flood-color="rgb(0,0,0)"
         result="flood"
         id="feFlood5870" />
      <feComposite
         in="flood"
         in2="SourceGraphic"
         operator="in"
         result="composite1"
         id="feComposite5872" />
      <feGaussianBlur
         in="composite1"
         stdDeviation="1"
         result="blur"
         id="feGaussianBlur5874" />
      <feOffset
         dx="2"
         dy="2"
         result="offset"
         id="feOffset5876" />
      <feComposite
         in="SourceGraphic"
         in2="offset"
         operator="over"
         result="composite2"
         id="feComposite5878" />
    </filter>
    <linearGradient
       inkscape:collect="always"
       xlink:href="#linearGradient5176"
       id="linearGradient7645"
       gradientUnits="userSpaceOnUse"
       x1="169.80745"
       y1="309.79779"
       x2="116.25164"
       y2="226.15239" />
    <linearGradient
       inkscape:collect="always"
       xlink:href="#linearGradient5176"
       id="linearGradient7647"
       gradientUnits="userSpaceOnUse"
       x1="169.80745"
       y1="309.79779"
       x2="116.25164"
       y2="226.15239" />
    <linearGradient
       inkscape:collect="always"
       xlink:href="#linearGradient5190"
       id="linearGradient7649"
       gradientUnits="userSpaceOnUse"
       x1="165.37506"
       y1="307.0769"
       x2="120.56908"
       y2="232.93532" />
    <linearGradient
       inkscape:collect="always"
       xlink:href="#linearGradient5190"
       id="linearGradient7651"
       gradientUnits="userSpaceOnUse"
       x1="165.37506"
       y1="307.0769"
       x2="120.56908"
       y2="232.93532" />
    <linearGradient
       inkscape:collect="always"
       xlink:href="#linearGradient5222"
       id="linearGradient7653"
       gradientUnits="userSpaceOnUse"
       gradientTransform="matrix(0.11551193,0,0,0.11551193,1011.3996,421.50807)"
       x1="234.10406"
       y1="261.54199"
       x2="150.8436"
       y2="117.33063" />
  </defs>
  <sodipodi:namedview
     id="base"
     pagecolor="#ffffff"
     bordercolor="#666666"
     borderopacity="1.0"
     inkscape:pageopacity="0.0"
     inkscape:pageshadow="2"
     inkscape:zoom="3.2421648"
     inkscape:cx="46.294772"
     inkscape:cy="60.568414"
     inkscape:document-units="mm"
     inkscape:current-layer="layer1"
     showgrid="false"
     inkscape:snap-bbox="true"
     inkscape:snap-bbox-midpoints="true"
     inkscape:snap-object-midpoints="true"
     showguides="true"
     inkscape:guide-bbox="true"
     inkscape:bbox-nodes="true"
     inkscape:window-width="1366"
     inkscape:window-height="745"
     inkscape:window-x="-8"
     inkscape:window-y="-8"
     inkscape:window-maximized="1"
     inkscape:snap-global="true"
     inkscape:snap-bbox-edge-midpoints="true"
     inkscape:bbox-paths="true"
     inkscape:snap-center="true"
     fit-margin-top="0"
     fit-margin-left="0"
     fit-margin-right="0"
     fit-margin-bottom="0" />
  <metadata
     id="metadata5">
    <rdf:RDF>
      <cc:Work
         rdf:about="">
        <dc:format>image/svg+xml</dc:format>
        <dc:type
           rdf:resource="http://purl.org/dc/dcmitype/StillImage" />
        <dc:title></dc:title>
      </cc:Work>
    </rdf:RDF>
  </metadata>
  <g
     inkscape:label="Layer 1"
     inkscape:groupmode="layer"
     id="layer1"
     transform="translate(-1020.5308,-424.78734)">
    <g
       style="display:inline;fill:url(#linearGradient7647);fill-opacity:1;stroke:#eeeeee;stroke-width:0.30269477;stroke-miterlimit:4;stroke-dasharray:none;stroke-opacity:1;filter:url(#filter5394)"
       id="g7605"
       transform="matrix(0.38161191,0,0,0.38161191,978.21158,341.6769)">
      <path
         style="fill:url(#linearGradient7645);fill-opacity:1;stroke:#eeeeee;stroke-width:0.30269477;stroke-linecap:butt;stroke-linejoin:miter;stroke-miterlimit:4;stroke-dasharray:none;stroke-opacity:1"
         d="m 123.83699,305.77012 c -4.39223,-3.39769 -5.67494,-19.75255 -6.87132,-34.16919 -1.02979,-12.40918 -0.79116,-24.46153 -0.24931,-27.46618 0.91601,-5.07944 2.54854,-8.8668 6.47505,-12.4195 4.08625,-3.69723 12.0097,-5.56286 19.83814,-5.56286 7.82844,0 15.75189,1.86563 19.83814,5.56286 3.92651,3.5527 5.55904,7.34006 6.47505,12.4195 0.54185,3.00465 0.78048,15.057 -0.24931,27.46618 -1.19638,14.41664 -2.47909,30.7715 -6.87132,34.16919 -4.51257,3.49077 -13.77895,3.99675 -19.19256,4.02768 -5.41361,-0.0309 -14.67999,-0.53691 -19.19256,-4.02768 z"
         id="path7603"
         inkscape:connector-curvature="0"
         sodipodi:nodetypes="sssscsssscs" />
    </g>
    <g
       style="fill:url(#linearGradient7651);fill-opacity:1;stroke:#eeeeee;stroke-width:0.30269477;stroke-miterlimit:4;stroke-dasharray:none;stroke-opacity:1"
       id="g7609"
       transform="matrix(0.38161191,0,0,0.38161191,978.21158,341.6769)">
      <path
         sodipodi:nodetypes="ssssscsssssss"
         inkscape:connector-curvature="0"
         id="path7607"
         d="m 153.47184,306.14671 c 2.09887,-0.40894 6.05994,-1.86788 7.4414,-5.27099 2.53245,-6.23846 3.93443,-17.05375 4.18578,-28.37032 0.19656,-8.84961 0.57811,-20.1471 -0.15503,-24.02949 -0.88972,-4.71156 -0.38309,-6.78081 -4.88341,-11.31711 -4.87197,-4.91092 -17.08851,-4.18579 -17.08851,-4.18579 0,0 -12.21654,-0.72513 -17.08851,4.18579 -4.50032,4.5363 -3.99369,6.60555 -4.88341,11.31711 -0.73314,3.88239 -0.35159,15.17988 -0.15503,24.02949 0.25135,11.31657 1.65333,22.13186 4.18578,28.37032 1.38146,3.40311 5.34253,4.86205 7.4414,5.27099 3.7092,0.72268 6.98614,0.93018 10.49977,0.93018 3.51363,0 6.79057,-0.2075 10.49977,-0.93018 z"
         style="fill:url(#linearGradient7649);fill-opacity:1;stroke:#eeeeee;stroke-width:0.30269477;stroke-linecap:butt;stroke-linejoin:miter;stroke-miterlimit:4;stroke-dasharray:none;stroke-opacity:1" />
    </g>
    <g
       id="g7613"
       style="display:inline;fill:#707070;fill-opacity:1;stroke:#353535;stroke-width:0.15134738;stroke-miterlimit:4;stroke-dasharray:none;stroke-opacity:1"
       transform="matrix(0.38161191,0,0,0.38161191,978.21158,341.6769)">
      <path
         sodipodi:nodetypes="zczcz"
         inkscape:connector-curvature="0"
         id="path7611"
         d="m 154.19186,301.91158 c 0.78681,-1.50907 -4.12223,-8.62388 -11.07669,-8.62388 -6.95446,0 -11.8635,7.11481 -11.07669,8.62388 0.78681,1.50907 5.38606,1.98711 11.07669,2.01016 5.69063,-0.0231 10.28988,-0.50109 11.07669,-2.01016 z"
         style="fill:#707070;fill-opacity:1;stroke:#353535;stroke-width:0.15134738;stroke-linecap:butt;stroke-linejoin:miter;stroke-miterlimit:4;stroke-dasharray:none;stroke-opacity:1" />
    </g>
    <rect
       style="display:inline;opacity:1;fill:#ffffff;fill-opacity:1;stroke:none;stroke-width:0.40650997;stroke-linecap:round;stroke-linejoin:miter;stroke-miterlimit:4;stroke-dasharray:none;stroke-dashoffset:0;stroke-opacity:1"
       id="rect5984"
       width="11.32331"
       height="16.658117"
       x="1027.118"
       y="435.06116"
       ry="0.35069716" />
    <rect
       ry="0.35069716"
       y="435.06116"
       x="1027.118"
       height="16.658117"
       width="11.32331"
       id="rect7615"
       style="display:inline;opacity:0.55;fill:url(#linearGradient7653);fill-opacity:1;stroke:none;stroke-width:0.40650997;stroke-linecap:round;stroke-linejoin:miter;stroke-miterlimit:4;stroke-dasharray:none;stroke-dashoffset:0;stroke-opacity:1" />
    <g
       id="g6066"
       transform="matrix(0.69498438,0,0,0.69498438,295.9761,140.74542)">
      <path
         inkscape:connector-curvature="0"
         id="path5033"
         d="m 1053.9165,437.3646 a 0.94653034,0.94653034 0 1 0 0,1.89287 h 6.8578 a 0.94653034,0.94653034 0 1 0 0,-1.89287 z"
         style="color:#000000;font-style:normal;font-variant:normal;font-weight:normal;font-stretch:normal;font-size:medium;line-height:normal;font-family:sans-serif;font-variant-ligatures:normal;font-variant-position:normal;font-variant-caps:normal;font-variant-numeric:normal;font-variant-alternates:normal;font-feature-settings:normal;text-indent:0;text-align:start;text-decoration:none;text-decoration-line:none;text-decoration-style:solid;text-decoration-color:#000000;letter-spacing:normal;word-spacing:normal;text-transform:none;writing-mode:lr-tb;direction:ltr;text-orientation:mixed;dominant-baseline:auto;baseline-shift:baseline;text-anchor:start;white-space:normal;shape-padding:0;clip-rule:nonzero;display:inline;overflow:visible;visibility:visible;opacity:1;isolation:auto;mix-blend-mode:normal;color-interpolation:sRGB;color-interpolation-filters:linearRGB;solid-color:#000000;solid-opacity:1;vector-effect:none;fill:#12c221;fill-opacity:1;fill-rule:nonzero;stroke:none;stroke-width:1.89287138;stroke-linecap:round;stroke-linejoin:miter;stroke-miterlimit:4;stroke-dasharray:none;stroke-dashoffset:0;stroke-opacity:1;color-rendering:auto;image-rendering:auto;shape-rendering:auto;text-rendering:auto;enable-background:accumulate" />
      <path
         id="path5046"
         d="m 1057.3453,433.9358 c -2.4052,0 -4.3752,1.97005 -4.3753,4.3752 h 1.8929 c 10e-5,-1.38217 1.1002,-2.48234 2.4824,-2.48234 0,0 0,0 0,0 v -1.89286 c 0,0 0,0 0,0 z"
         style="color:#000000;font-style:normal;font-variant:normal;font-weight:normal;font-stretch:normal;font-size:medium;line-height:normal;font-family:sans-serif;font-variant-ligatures:normal;font-variant-position:normal;font-variant-caps:normal;font-variant-numeric:normal;font-variant-alternates:normal;font-feature-settings:normal;text-indent:0;text-align:start;text-decoration:none;text-decoration-line:none;text-decoration-style:solid;text-decoration-color:#000000;letter-spacing:normal;word-spacing:normal;text-transform:none;writing-mode:lr-tb;direction:ltr;text-orientation:mixed;dominant-baseline:auto;baseline-shift:baseline;text-anchor:start;white-space:normal;shape-padding:0;clip-rule:nonzero;display:inline;overflow:visible;visibility:visible;opacity:1;isolation:auto;mix-blend-mode:normal;color-interpolation:sRGB;color-interpolation-filters:linearRGB;solid-color:#000000;solid-opacity:1;vector-effect:none;fill:#12c221;fill-opacity:1;fill-rule:nonzero;stroke:none;stroke-width:1.89287138;stroke-linecap:round;stroke-linejoin:round;stroke-miterlimit:4;stroke-dasharray:none;stroke-dashoffset:0;stroke-opacity:1;color-rendering:auto;image-rendering:auto;shape-rendering:auto;text-rendering:auto;enable-background:accumulate"
         inkscape:connector-curvature="0" />
      <path
         id="circle5023"
         d="m 1057.3588,433.9358 c 0,0 -0.01,2.9e-4 -0.014,2.9e-4 v 1.8929 c 0,-2e-5 0.01,-2.8e-4 0.014,-2.8e-4 1.3822,0 2.4825,1.1002 2.4825,2.48239 0,1.3822 -1.1003,2.48235 -2.4825,2.48235 -1.3822,0 -2.4824,-1.10015 -2.4824,-2.48235 0,-1e-5 0,0 0,0 h -1.8929 c 0,2e-5 0,0 0,0 0,2.40518 1.9701,4.3752 4.3753,4.3752 2.4052,0 4.3754,-1.97002 4.3754,-4.3752 0,-2.40518 -1.9702,-4.37525 -4.3754,-4.37525 z"
         style="color:#000000;font-style:normal;font-variant:normal;font-weight:normal;font-stretch:normal;font-size:medium;line-height:normal;font-family:sans-serif;font-variant-ligatures:normal;font-variant-position:normal;font-variant-caps:normal;font-variant-numeric:normal;font-variant-alternates:normal;font-feature-settings:normal;text-indent:0;text-align:start;text-decoration:none;text-decoration-line:none;text-decoration-style:solid;text-decoration-color:#000000;letter-spacing:normal;word-spacing:normal;text-transform:none;writing-mode:lr-tb;direction:ltr;text-orientation:mixed;dominant-baseline:auto;baseline-shift:baseline;text-anchor:start;white-space:normal;shape-padding:0;clip-rule:nonzero;display:inline;overflow:visible;visibility:visible;opacity:1;isolation:auto;mix-blend-mode:normal;color-interpolation:sRGB;color-interpolation-filters:linearRGB;solid-color:#000000;solid-opacity:1;vector-effect:none;fill:#3f46b3;fill-opacity:1;fill-rule:nonzero;stroke:none;stroke-width:1.89287138;stroke-linecap:round;stroke-linejoin:round;stroke-miterlimit:4;stroke-dasharray:none;stroke-dashoffset:0;stroke-opacity:1;color-rendering:auto;image-rendering:auto;shape-rendering:auto;text-rendering:auto;enable-background:accumulate"
         inkscape:connector-curvature="0" />
      <path
         inkscape:connector-curvature="0"
         id="circle5068"
         d="m 1056.7464,428.25352 c -1.9158,0 -3.5176,1.43238 -3.7865,3.2775 h 1.9304 c 0.233,-0.80601 0.9683,-1.38464 1.8561,-1.38464 1.0791,0 1.9335,0.85448 1.9335,1.93354 0,0.88781 -0.5786,1.6231 -1.3846,1.85603 v 1.93046 c 1.8451,-0.26888 3.2775,-1.8707 3.2775,-3.78649 0,-2.10205 -1.7243,-3.8264 -3.8264,-3.8264 z"
         style="color:#000000;font-style:normal;font-variant:normal;font-weight:normal;font-stretch:normal;font-size:medium;line-height:normal;font-family:sans-serif;font-variant-ligatures:normal;font-variant-position:normal;font-variant-caps:normal;font-variant-numeric:normal;font-variant-alternates:normal;font-feature-settings:normal;text-indent:0;text-align:start;text-decoration:none;text-decoration-line:none;text-decoration-style:solid;text-decoration-color:#000000;letter-spacing:normal;word-spacing:normal;text-transform:none;writing-mode:lr-tb;direction:ltr;text-orientation:mixed;dominant-baseline:auto;baseline-shift:baseline;text-anchor:start;white-space:normal;shape-padding:0;clip-rule:nonzero;display:inline;overflow:visible;visibility:visible;opacity:1;isolation:auto;mix-blend-mode:normal;color-interpolation:sRGB;color-interpolation-filters:linearRGB;solid-color:#000000;solid-opacity:1;vector-effect:none;fill:#12c221;fill-opacity:1;fill-rule:nonzero;stroke:none;stroke-width:1.89287138;stroke-linecap:round;stroke-linejoin:round;stroke-miterlimit:4;stroke-dasharray:none;stroke-dashoffset:0;stroke-opacity:1;color-rendering:auto;image-rendering:auto;shape-rendering:auto;text-rendering:auto;enable-background:accumulate" />
      <path
         inkscape:connector-curvature="0"
         id="path5031"
         d="m 1053.9022,430.49352 a 0.94653034,0.94653034 0 0 0 -0.9322,0.95993 v 6.85759 a 0.94653034,0.94653034 0 1 0 1.8929,0 v -6.85759 a 0.94653034,0.94653034 0 0 0 -0.9607,-0.95993 z"
         style="color:#000000;font-style:normal;font-variant:normal;font-weight:normal;font-stretch:normal;font-size:medium;line-height:normal;font-family:sans-serif;font-variant-ligatures:normal;font-variant-position:normal;font-variant-caps:normal;font-variant-numeric:normal;font-variant-alternates:normal;font-feature-settings:normal;text-indent:0;text-align:start;text-decoration:none;text-decoration-line:none;text-decoration-style:solid;text-decoration-color:#000000;letter-spacing:normal;word-spacing:normal;text-transform:none;writing-mode:lr-tb;direction:ltr;text-orientation:mixed;dominant-baseline:auto;baseline-shift:baseline;text-anchor:start;white-space:normal;shape-padding:0;clip-rule:nonzero;display:inline;overflow:visible;visibility:visible;opacity:1;isolation:auto;mix-blend-mode:normal;color-interpolation:sRGB;color-interpolation-filters:linearRGB;solid-color:#000000;solid-opacity:1;vector-effect:none;fill:#3f46b3;fill-opacity:1;fill-rule:nonzero;stroke:none;stroke-width:1.89287138;stroke-linecap:round;stroke-linejoin:miter;stroke-miterlimit:4;stroke-dasharray:none;stroke-dashoffset:0;stroke-opacity:1;color-rendering:auto;image-rendering:auto;shape-rendering:auto;text-rendering:auto;enable-background:accumulate" />
    </g>
    <g
       aria-label="SURE"
       transform="scale(-1)"
       style="font-style:normal;font-variant:normal;font-weight:normal;font-stretch:normal;font-size:3.68410921px;line-height:1.25;font-family:'Arial Rounded MT Bold';-inkscape-font-specification:'Arial Rounded MT Bold, Normal';font-variant-ligatures:normal;font-variant-caps:normal;font-variant-numeric:normal;font-feature-settings:normal;text-align:start;letter-spacing:0px;word-spacing:0px;writing-mode:tb-rl;text-anchor:start;fill:#12c221;fill-opacity:1;stroke:none;stroke-width:0.09210273"
       id="text6013">
      <path
         d="m -1036.9586,-446.30979 q -0.2392,0 -0.4299,-0.12412 -0.1907,-0.12232 -0.2986,-0.35978 -0.1079,-0.23745 -0.1079,-0.56305 0,-0.39035 0.1475,-0.644 0.1061,-0.17988 0.2824,-0.29321 0.1781,-0.11153 0.3454,-0.11153 0.097,0 0.1655,0.0666 0.07,0.0684 0.07,0.1727 0,0.0845 -0.054,0.14211 -0.054,0.0594 -0.1601,0.10074 -0.126,0.0504 -0.2105,0.10793 -0.085,0.0594 -0.1403,0.1655 -0.054,0.10613 -0.054,0.27882 0,0.23745 0.1098,0.38496 0.1115,0.14931 0.277,0.14931 0.1313,0 0.2122,-0.0809 0.083,-0.0792 0.126,-0.20687 0.043,-0.12592 0.092,-0.33819 0.067,-0.28422 0.1547,-0.4767 0.09,-0.19069 0.2429,-0.30402 0.1547,-0.11153 0.3831,-0.11153 0.2177,0 0.3868,0.11873 0.1691,0.11873 0.259,0.34359 0.092,0.22486 0.092,0.52887 0,0.24285 -0.061,0.41914 -0.059,0.17809 -0.1601,0.29501 -0.099,0.11693 -0.2087,0.1709 -0.1097,0.054 -0.214,0.054 -0.095,0 -0.1727,-0.0684 -0.076,-0.0666 -0.076,-0.1673 0,-0.0917 0.045,-0.14031 0.047,-0.0468 0.1511,-0.10254 0.1493,-0.072 0.2321,-0.17269 0.084,-0.10074 0.084,-0.3238 0,-0.20687 -0.092,-0.33459 -0.09,-0.12592 -0.2177,-0.12592 -0.079,0 -0.1367,0.0432 -0.058,0.0432 -0.099,0.11873 -0.041,0.0755 -0.065,0.1529 -0.023,0.0773 -0.068,0.25544 -0.052,0.22306 -0.1151,0.40295 -0.063,0.18169 -0.1529,0.30761 -0.09,0.12772 -0.2285,0.19788 -0.1367,0.0719 -0.3364,0.0719 z"
         style="font-style:normal;font-variant:normal;font-weight:normal;font-stretch:normal;font-size:3.68410921px;font-family:'Arial Rounded MT Bold';-inkscape-font-specification:'Arial Rounded MT Bold, Normal';font-variant-ligatures:normal;font-variant-caps:normal;font-variant-numeric:normal;font-feature-settings:normal;text-align:start;writing-mode:tb-rl;text-anchor:start;fill:#12c221;fill-opacity:1;stroke-width:0.09210273"
         id="path6136" />
      <path
         d="m -1036.6599,-445.85287 h 1.2682 q 0.1619,0 0.2428,0.072 0.081,0.0738 0.081,0.19248 0,0.12413 -0.081,0.19608 -0.081,0.0738 -0.2428,0.0738 h -1.297 q -0.2213,0 -0.3706,0.0486 -0.1475,0.0504 -0.2302,0.17629 -0.081,0.12592 -0.081,0.35258 0,0.313 0.1655,0.44252 0.1673,0.12952 0.5055,0.12952 h 1.3078 q 0.1637,0 0.2428,0.072 0.081,0.0719 0.081,0.19248 0,0.12052 -0.081,0.19428 -0.079,0.0756 -0.2428,0.0756 h -1.2682 q -0.3094,0 -0.5163,-0.0612 -0.2069,-0.0594 -0.3634,-0.22666 -0.1331,-0.14391 -0.1943,-0.33459 -0.061,-0.19069 -0.061,-0.44613 0,-0.30401 0.065,-0.52347 0.067,-0.21946 0.2033,-0.35798 0.1385,-0.13851 0.3526,-0.20327 0.2158,-0.0648 0.5145,-0.0648 z"
         style="font-style:normal;font-variant:normal;font-weight:normal;font-stretch:normal;font-size:3.68410921px;font-family:'Arial Rounded MT Bold';-inkscape-font-specification:'Arial Rounded MT Bold, Normal';font-variant-ligatures:normal;font-variant-caps:normal;font-variant-numeric:normal;font-feature-settings:normal;text-align:start;writing-mode:tb-rl;text-anchor:start;fill:#12c221;fill-opacity:1;stroke-width:0.09210273"
         id="path6138" />
      <path
         d="m -1036.6222,-442.33966 v -0.18708 h -0.8472 q -0.1673,0 -0.2465,-0.0737 -0.079,-0.0738 -0.079,-0.19248 0,-0.12773 0.083,-0.19788 0.083,-0.0702 0.2429,-0.0702 h 2.0291 q 0.1727,0 0.25,0.0774 0.077,0.0774 0.077,0.25005 v 0.86886 q 0,0.17989 -0.016,0.30761 -0.014,0.12772 -0.061,0.23025 -0.052,0.12413 -0.1493,0.21947 -0.097,0.0953 -0.2266,0.14391 -0.1277,0.0504 -0.2717,0.0504 -0.295,0 -0.4713,-0.1673 -0.1762,-0.1655 -0.25,-0.50369 -0.076,0.14212 -0.2231,0.27163 -0.1475,0.12952 -0.3148,0.23026 -0.1655,0.10254 -0.3004,0.1583 -0.1331,0.0576 -0.1835,0.0576 -0.052,0 -0.1043,-0.0342 -0.05,-0.0324 -0.079,-0.0899 -0.031,-0.0576 -0.031,-0.13311 0,-0.0899 0.043,-0.15111 0.041,-0.0612 0.1062,-0.10613 0.065,-0.0432 0.1907,-0.11873 l 0.3561,-0.21407 q 0.1961,-0.11512 0.2986,-0.20687 0.1026,-0.0899 0.1404,-0.18348 0.038,-0.0935 0.038,-0.23566 z m 1.1081,0.30581 v -0.49289 h -0.7249 v 0.4785 q 0,0.19248 0.032,0.3238 0.034,0.13132 0.1133,0.19968 0.081,0.0702 0.2213,0.0702 0.1097,0 0.1924,-0.0558 0.085,-0.0558 0.126,-0.15471 0.039,-0.0935 0.039,-0.36877 z"
         style="font-style:normal;font-variant:normal;font-weight:normal;font-stretch:normal;font-size:3.68410921px;font-family:'Arial Rounded MT Bold';-inkscape-font-specification:'Arial Rounded MT Bold, Normal';font-variant-ligatures:normal;font-variant-caps:normal;font-variant-numeric:normal;font-feature-settings:normal;text-align:start;writing-mode:tb-rl;text-anchor:start;fill:#12c221;fill-opacity:1;stroke-width:0.09210273"
         id="path6140" />
      <path
         d="m -1035.5248,-438.66994 v -1.20345 h -0.6476 v 1.10811 q 0,0.12233 -0.056,0.18169 -0.054,0.0612 -0.1439,0.0612 -0.09,0 -0.1475,-0.0594 -0.056,-0.0594 -0.056,-0.18349 v -1.10811 h -0.7501 v 1.24483 q 0,0.12592 -0.059,0.18888 -0.058,0.0648 -0.1547,0.0648 -0.093,0 -0.1529,-0.0648 -0.058,-0.063 -0.058,-0.18888 v -1.4517 q 0,-0.17449 0.077,-0.25184 0.077,-0.0756 0.25,-0.0756 h 1.9824 q 0.1151,0 0.1871,0.0342 0.074,0.0342 0.1061,0.10614 0.034,0.0738 0.034,0.18708 v 1.41032 q 0,0.12772 -0.058,0.18888 -0.056,0.063 -0.1475,0.063 -0.093,0 -0.1511,-0.063 -0.056,-0.0612 -0.056,-0.18888 z"
         style="font-style:normal;font-variant:normal;font-weight:normal;font-stretch:normal;font-size:3.68410921px;font-family:'Arial Rounded MT Bold';-inkscape-font-specification:'Arial Rounded MT Bold, Normal';font-variant-ligatures:normal;font-variant-caps:normal;font-variant-numeric:normal;font-feature-settings:normal;text-align:start;writing-mode:tb-rl;text-anchor:start;fill:#12c221;fill-opacity:1;stroke-width:0.09210273"
         id="path6142" />
    </g>
    <g
       id="g7629"
       style="display:inline;fill:none;fill-opacity:1;stroke:#999999;stroke-opacity:1"
       transform="matrix(0.38161191,0,0,0.38161191,978.21158,341.6769)">
      <g
         style="fill:none;fill-opacity:1;stroke:#999999;stroke-opacity:1"
         id="g7619">
        <path
           sodipodi:nodetypes="csc"
           inkscape:connector-curvature="0"
           id="path7617"
           d="m 145.65178,295.31484 c 0,0 -1.10074,0.383 -2.60614,0.383 -1.5054,0 -2.60614,-0.383 -2.60614,-0.383"
           style="fill:none;fill-opacity:1;stroke:#999999;stroke-width:1;stroke-linecap:round;stroke-linejoin:miter;stroke-miterlimit:4;stroke-dasharray:none;stroke-opacity:1" />
      </g>
      <g
         style="fill:none;fill-opacity:1;stroke:#999999;stroke-opacity:1"
         id="g7623">
        <path
           sodipodi:nodetypes="csc"
           inkscape:connector-curvature="0"
           id="path7621"
           d="m 148.25613,297.76597 c 0,0 -2.37983,0.53619 -5.13889,0.53619 -2.75906,0 -5.13889,-0.53619 -5.13889,-0.53619"
           style="fill:none;fill-opacity:1;stroke:#999999;stroke-width:1;stroke-linecap:round;stroke-linejoin:miter;stroke-miterlimit:4;stroke-dasharray:none;stroke-opacity:1" />
      </g>
      <g
         style="fill:none;fill-opacity:1;stroke:#999999;stroke-opacity:1"
         id="g7627">
        <path
           style="fill:none;fill-opacity:1;stroke:#999999;stroke-width:1;stroke-linecap:round;stroke-linejoin:miter;stroke-miterlimit:4;stroke-dasharray:none;stroke-opacity:1"
           d="m 135.37748,300.10224 c 0,0 2.57956,1.03408 7.72234,1.03408 5.14279,0 7.72235,-1.03408 7.72235,-1.03408"
           id="path7625"
           inkscape:connector-curvature="0"
           sodipodi:nodetypes="csc" />
      </g>
    </g>
  </g>
  <g
     inkscape:groupmode="layer"
     id="layer3"
     inkscape:label="Layer 2"
     style="display:inline"
     transform="translate(-1020.5308,-424.78734)" />
</svg>
