<svg xmlns="http://www.w3.org/2000/svg" xmlns:xlink="http://www.w3.org/1999/xlink" width="92.693" height="144.771" viewBox="0 0 24.525 38.304"><defs><linearGradient id="c"><stop offset="0" stop-color="#688e44"/><stop offset=".5" stop-color="#688e44"/><stop offset=".85" stop-color="#90b86b"/><stop offset="1" stop-color="#688e44"/></linearGradient><linearGradient id="b"><stop offset="0" stop-color="#202020"/><stop offset=".539" stop-color="#202020"/><stop offset=".709" stop-color="#777"/><stop offset="1" stop-color="#202020"/></linearGradient><linearGradient id="a"><stop offset="0" stop-color="#aeaeae"/><stop offset="1" stop-color="#eee"/></linearGradient><linearGradient xlink:href="#a" id="f" gradientUnits="userSpaceOnUse" x1="169.807" y1="309.798" x2="116.252" y2="226.152"/><linearGradient xlink:href="#a" id="d" gradientUnits="userSpaceOnUse" x1="169.807" y1="309.798" x2="116.252" y2="226.152"/><linearGradient xlink:href="#b" id="h" gradientUnits="userSpaceOnUse" x1="165.375" y1="307.077" x2="120.569" y2="232.935"/><linearGradient xlink:href="#b" id="g" gradientUnits="userSpaceOnUse" x1="165.375" y1="307.077" x2="120.569" y2="232.935"/><linearGradient xlink:href="#c" id="i" gradientUnits="userSpaceOnUse" gradientTransform="translate(1011.4 421.508) scale(.11551)" x1="234.104" y1="261.542" x2="150.844" y2="117.331"/><filter id="e" color-interpolation-filters="sRGB"><feFlood flood-opacity=".498" flood-color="#000" result="flood"/><feComposite in="flood" in2="SourceGraphic" operator="in" result="composite1"/><feGaussianBlur in="composite1" stdDeviation="1" result="blur"/><feOffset dx="2" dy="2" result="offset"/><feComposite in="SourceGraphic" in2="offset" result="fbSourceGraphic"/><feColorMatrix result="fbSourceGraphicAlpha" in="fbSourceGraphic" values="0 0 0 -1 0 0 0 0 -1 0 0 0 0 -1 0 0 0 0 1 0"/><feFlood flood-opacity=".498" flood-color="#000" result="flood"/><feComposite in2="fbSourceGraphic" in="flood" operator="in" result="composite1"/><feGaussianBlur in="composite1" stdDeviation="1" result="blur"/><feOffset dx="2" dy="2" result="offset"/><feComposite in2="offset" in="fbSourceGraphic" result="composite2"/></filter></defs><g transform="translate(-1020.53 -424.787)"><g transform="translate(978.212 341.677) scale(.38161)" fill="url(#d)" stroke="#eee" stroke-width=".303" filter="url(#e)"><path d="M123.837 305.77c-4.392-3.398-5.675-19.752-6.871-34.17-1.03-12.408-.791-24.46-.25-27.465.916-5.08 2.549-8.867 6.475-12.42 4.087-3.697 12.01-5.563 19.839-5.563 7.828 0 15.751 1.866 19.838 5.563 3.926 3.553 5.559 7.34 6.475 12.42.542 3.004.78 15.057-.25 27.466-1.196 14.417-2.479 30.771-6.87 34.17-4.513 3.49-13.78 3.996-19.193 4.027-5.414-.031-14.68-.537-19.193-4.028z" fill="url(#f)"/></g><path d="M153.472 306.147c2.099-.41 6.06-1.868 7.441-5.271 2.533-6.239 3.935-17.054 4.186-28.37.197-8.85.578-20.148-.155-24.03-.89-4.712-.383-6.78-4.883-11.317-4.872-4.911-17.089-4.186-17.089-4.186s-12.216-.725-17.088 4.186c-4.5 4.536-3.994 6.605-4.884 11.317-.733 3.882-.351 15.18-.155 24.03.251 11.316 1.653 22.131 4.186 28.37 1.381 3.403 5.342 4.862 7.441 5.27 3.71.723 6.986.93 10.5.93 3.514 0 6.79-.207 10.5-.93z" fill="url(#h)" transform="translate(978.212 341.677) scale(.38161)" stroke="#eee" stroke-width=".303"/><path d="M1037.053 456.89c.3-.576-1.573-3.291-4.227-3.291-2.654 0-4.527 2.715-4.227 3.291.3.576 2.055.758 4.227.767 2.172-.009 3.927-.191 4.227-.767z" fill="#707070" stroke="#353535" stroke-width=".05762311"/><rect width="11.323" height="16.658" x="1027.118" y="435.061" ry=".351" fill="#fff"/><rect ry=".351" y="435.061" x="1027.118" height="16.658" width="11.323" opacity=".55" fill="url(#i)"/><g color="#000" font-weight="400" font-family="sans-serif"><path d="M1028.432 444.707a.658.658 0 100 1.316h4.766a.658.658 0 100-1.316z" style="line-height:normal;font-variant-ligatures:normal;font-variant-position:normal;font-variant-caps:normal;font-variant-numeric:normal;font-variant-alternates:normal;font-feature-settings:normal;text-indent:0;text-align:start;text-decoration-line:none;text-decoration-style:solid;text-decoration-color:#000;text-transform:none;text-orientation:mixed;white-space:normal;shape-padding:0;isolation:auto;mix-blend-mode:normal;solid-color:#000;solid-opacity:1" overflow="visible" fill="#12c221" enable-background="accumulate"/><path d="M1030.815 442.324a3.05 3.05 0 00-3.041 3.04h1.315c0-.96.765-1.724 1.726-1.724v-1.316z" style="line-height:normal;font-variant-ligatures:normal;font-variant-position:normal;font-variant-caps:normal;font-variant-numeric:normal;font-variant-alternates:normal;font-feature-settings:normal;text-indent:0;text-align:start;text-decoration-line:none;text-decoration-style:solid;text-decoration-color:#000;text-transform:none;text-orientation:mixed;white-space:normal;shape-padding:0;isolation:auto;mix-blend-mode:normal;solid-color:#000;solid-opacity:1" overflow="visible" fill="#12c221" enable-background="accumulate"/><path d="M1030.824 442.324h-.01v1.316h.01c.96 0 1.725.764 1.725 1.725 0 .96-.764 1.725-1.725 1.725-.96 0-1.725-.765-1.725-1.725h-1.316a3.05 3.05 0 003.041 3.04 3.05 3.05 0 003.04-3.04 3.05 3.05 0 00-3.04-3.04z" style="line-height:normal;font-variant-ligatures:normal;font-variant-position:normal;font-variant-caps:normal;font-variant-numeric:normal;font-variant-alternates:normal;font-feature-settings:normal;text-indent:0;text-align:start;text-decoration-line:none;text-decoration-style:solid;text-decoration-color:#000;text-transform:none;text-orientation:mixed;white-space:normal;shape-padding:0;isolation:auto;mix-blend-mode:normal;solid-color:#000;solid-opacity:1" overflow="visible" fill="#3f46b3" enable-background="accumulate"/><path d="M1030.398 438.375a2.672 2.672 0 00-2.631 2.278h1.341c.162-.56.673-.963 1.29-.963.75 0 1.344.594 1.344 1.344 0 .617-.402 1.128-.962 1.29v1.342a2.672 2.672 0 002.278-2.632 2.67 2.67 0 00-2.66-2.66z" style="line-height:normal;font-variant-ligatures:normal;font-variant-position:normal;font-variant-caps:normal;font-variant-numeric:normal;font-variant-alternates:normal;font-feature-settings:normal;text-indent:0;text-align:start;text-decoration-line:none;text-decoration-style:solid;text-decoration-color:#000;text-transform:none;text-orientation:mixed;white-space:normal;shape-padding:0;isolation:auto;mix-blend-mode:normal;solid-color:#000;solid-opacity:1" overflow="visible" fill="#12c221" enable-background="accumulate"/><path d="M1028.422 439.932a.658.658 0 00-.648.667v4.766a.658.658 0 101.315 0v-4.766a.658.658 0 00-.667-.667z" style="line-height:normal;font-variant-ligatures:normal;font-variant-position:normal;font-variant-caps:normal;font-variant-numeric:normal;font-variant-alternates:normal;font-feature-settings:normal;text-indent:0;text-align:start;text-decoration-line:none;text-decoration-style:solid;text-decoration-color:#000;text-transform:none;text-orientation:mixed;white-space:normal;shape-padding:0;isolation:auto;mix-blend-mode:normal;solid-color:#000;solid-opacity:1" overflow="visible" fill="#3f46b3" enable-background="accumulate"/></g><g aria-label="SURE" style="line-height:1.25;-inkscape-font-specification:'Arial Rounded MT Bold, Normal';font-variant-ligatures:normal;font-variant-caps:normal;font-variant-numeric:normal;font-feature-settings:normal;text-align:start" font-weight="400" font-size="3.684" font-family="Arial Rounded MT Bold" letter-spacing="0" word-spacing="0" writing-mode="tb-rl" fill="#12c221" stroke-width=".092"><path d="M1036.959 446.31q.239 0 .43.124.19.122.298.36.108.237.108.563 0 .39-.147.644-.107.18-.283.293-.178.111-.345.111-.097 0-.166-.066-.07-.069-.07-.173 0-.084.054-.142.054-.06.16-.1.126-.051.21-.109.086-.059.141-.165.054-.106.054-.279 0-.237-.11-.385-.111-.15-.277-.15-.131 0-.212.082-.083.079-.126.207-.043.125-.092.338-.067.284-.155.476-.09.191-.242.304-.155.112-.384.112-.217 0-.386-.119-.17-.118-.26-.343-.091-.225-.091-.53 0-.242.06-.418.06-.178.16-.295.1-.117.21-.171.11-.054.213-.054.095 0 .173.068.076.067.076.167 0 .092-.045.14-.047.048-.151.103-.15.072-.232.173-.084.1-.084.324 0 .207.092.334.09.126.218.126.079 0 .136-.043.058-.043.1-.119.04-.075.064-.153.023-.077.068-.255.052-.223.115-.403.063-.182.153-.308.09-.127.229-.197.136-.072.336-.072zM1036.66 445.853h-1.268q-.162 0-.243-.072-.081-.074-.081-.193 0-.124.08-.196.082-.073.244-.073h1.297q.221 0 .37-.05.148-.05.23-.175.082-.126.082-.353 0-.313-.166-.442-.167-.13-.505-.13h-1.308q-.164 0-.243-.072-.081-.072-.081-.192 0-.121.08-.195.08-.075.244-.075h1.268q.31 0 .516.06.207.06.364.227.133.144.194.335.06.19.06.446 0 .304-.064.524-.067.22-.203.358-.139.138-.353.203-.216.065-.514.065zM1036.622 442.34v.187h.847q.168 0 .247.073.079.074.079.193 0 .128-.083.198t-.243.07h-2.03q-.172 0-.25-.077-.076-.078-.076-.25v-.87q0-.18.016-.307.014-.128.06-.23.053-.124.15-.22.097-.095.227-.144.127-.05.271-.05.295 0 .472.167.176.166.25.504.076-.142.223-.272.147-.13.315-.23.165-.102.3-.158.133-.058.184-.058.052 0 .104.034.05.033.079.09.03.058.03.133 0 .09-.042.152-.041.06-.106.106-.065.043-.191.118l-.356.214q-.196.116-.299.207-.102.09-.14.184-.038.093-.038.236zm-1.108-.306v.493h.725v-.479q0-.192-.032-.324-.034-.13-.113-.2-.081-.07-.222-.07-.11 0-.192.056-.085.056-.126.155-.039.094-.039.369zM1035.525 438.67v1.203h.647v-1.108q0-.122.056-.181.054-.062.144-.062t.148.06q.056.06.056.183v1.108h.75v-1.244q0-.126.059-.19.058-.064.155-.064.093 0 .153.065.058.063.058.189v1.451q0 .175-.077.252-.077.076-.25.076h-1.983q-.115 0-.187-.034-.074-.035-.106-.107-.034-.073-.034-.187v-1.41q0-.128.058-.189.056-.063.147-.063.093 0 .151.063.056.061.056.189z" style="-inkscape-font-specification:'Arial Rounded MT Bold, Normal';font-variant-ligatures:normal;font-variant-caps:normal;font-variant-numeric:normal;font-feature-settings:normal;text-align:start"/></g><g fill="none" stroke="#999"><path d="M1033.794 454.373s-.42.146-.995.146a3.33 3.33 0 01-.994-.146M1034.788 455.308s-.908.205-1.961.205-1.961-.205-1.961-.205M1029.873 456.2s.985.394 2.947.394c1.963 0 2.947-.395 2.947-.395" stroke-linecap="round" stroke-width=".38161"/></g></g></svg>