<?xml version="1.0" encoding="UTF-8" standalone="no"?>
<svg
   xmlns:dc="http://purl.org/dc/elements/1.1/"
   xmlns:cc="http://creativecommons.org/ns#"
   xmlns:rdf="http://www.w3.org/1999/02/22-rdf-syntax-ns#"
   xmlns:svg="http://www.w3.org/2000/svg"
   xmlns="http://www.w3.org/2000/svg"
   xmlns:xlink="http://www.w3.org/1999/xlink"
   xmlns:sodipodi="http://sodipodi.sourceforge.net/DTD/sodipodi-0.dtd"
   xmlns:inkscape="http://www.inkscape.org/namespaces/inkscape"
   width="37.901096"
   height="37.912434"
   viewBox="0 0 10.027989 10.031"
   version="1.1"
   id="svg3893"
   sodipodi:docname="logo.svg"
   inkscape:version="0.92.4 (5da689c313, 2019-01-14)">
  <metadata
     id="metadata3897">
    <rdf:RDF>
      <cc:Work
         rdf:about="">
        <dc:format>image/svg+xml</dc:format>
        <dc:type
           rdf:resource="http://purl.org/dc/dcmitype/StillImage" />
        <dc:title></dc:title>
      </cc:Work>
    </rdf:RDF>
  </metadata>
  <sodipodi:namedview
     pagecolor="#ffffff"
     bordercolor="#666666"
     borderopacity="1"
     objecttolerance="10"
     gridtolerance="10"
     guidetolerance="10"
     inkscape:pageopacity="0"
     inkscape:pageshadow="2"
     inkscape:window-width="1366"
     inkscape:window-height="745"
     id="namedview3895"
     showgrid="false"
     fit-margin-top="0"
     fit-margin-left="0"
     fit-margin-right="0"
     fit-margin-bottom="0"
     inkscape:zoom="3.9786975"
     inkscape:cx="-18.078422"
     inkscape:cy="20.649445"
     inkscape:window-x="-8"
     inkscape:window-y="-8"
     inkscape:window-maximized="1"
     inkscape:current-layer="svg3893" />
  <defs
     id="defs3857">
    <linearGradient
       id="c">
      <stop
         offset="0"
         stop-color="#688e44"
         id="stop3806" />
      <stop
         offset=".5"
         stop-color="#688e44"
         id="stop3808" />
      <stop
         offset=".85"
         stop-color="#90b86b"
         id="stop3810" />
      <stop
         offset="1"
         stop-color="#688e44"
         id="stop3812" />
    </linearGradient>
    <linearGradient
       id="b">
      <stop
         offset="0"
         stop-color="#202020"
         id="stop3815" />
      <stop
         offset=".539"
         stop-color="#202020"
         id="stop3817" />
      <stop
         offset=".709"
         stop-color="#777"
         id="stop3819" />
      <stop
         offset="1"
         stop-color="#202020"
         id="stop3821" />
    </linearGradient>
    <linearGradient
       id="a">
      <stop
         offset="0"
         stop-color="#aeaeae"
         id="stop3824" />
      <stop
         offset="1"
         stop-color="#eee"
         id="stop3826" />
    </linearGradient>
    <linearGradient
       xlink:href="#a"
       id="f"
       gradientUnits="userSpaceOnUse"
       x1="169.80701"
       y1="309.798"
       x2="116.252"
       y2="226.15199" />
    <linearGradient
       xlink:href="#a"
       id="d"
       gradientUnits="userSpaceOnUse"
       x1="169.80701"
       y1="309.798"
       x2="116.252"
       y2="226.15199" />
    <linearGradient
       xlink:href="#b"
       id="h"
       gradientUnits="userSpaceOnUse"
       x1="165.375"
       y1="307.077"
       x2="120.569"
       y2="232.935"
       gradientTransform="matrix(0.38161,0,0,0.38161,-42.318,-83.11)" />
    <linearGradient
       xlink:href="#b"
       id="g"
       gradientUnits="userSpaceOnUse"
       x1="165.375"
       y1="307.077"
       x2="120.569"
       y2="232.935" />
    <linearGradient
       xlink:href="#c"
       id="i"
       gradientUnits="userSpaceOnUse"
       gradientTransform="matrix(0.11551,0,0,0.11551,-9.13,-3.279)"
       x1="234.104"
       y1="261.54199"
       x2="150.84399"
       y2="117.331" />
    <filter
       id="e"
       style="color-interpolation-filters:sRGB">
      <feFlood
         flood-opacity=".498"
         flood-color="#000"
         result="flood"
         id="feFlood3834" />
      <feComposite
         in="flood"
         in2="SourceGraphic"
         operator="in"
         result="composite1"
         id="feComposite3836" />
      <feGaussianBlur
         in="composite1"
         stdDeviation="1"
         result="blur"
         id="feGaussianBlur3838" />
      <feOffset
         dx="2"
         dy="2"
         result="offset"
         id="feOffset3840" />
      <feComposite
         in="SourceGraphic"
         in2="offset"
         result="fbSourceGraphic"
         id="feComposite3842" />
      <feColorMatrix
         result="fbSourceGraphicAlpha"
         in="fbSourceGraphic"
         values="0 0 0 -1 0 0 0 0 -1 0 0 0 0 -1 0 0 0 0 1 0"
         id="feColorMatrix3844" />
      <feFlood
         flood-opacity=".498"
         flood-color="#000"
         result="flood"
         id="feFlood3846" />
      <feComposite
         in2="fbSourceGraphic"
         in="flood"
         operator="in"
         result="composite1"
         id="feComposite3848" />
      <feGaussianBlur
         in="composite1"
         stdDeviation="1"
         result="blur"
         id="feGaussianBlur3850" />
      <feOffset
         dx="2"
         dy="2"
         result="offset"
         id="feOffset3852" />
      <feComposite
         in2="offset"
         in="fbSourceGraphic"
         result="composite2"
         id="feComposite3854" />
    </filter>
  </defs>
  <path
     d="m 0.665,6.333 a 0.658,0.658 0 1 0 0,1.316 h 4.766 a 0.658,0.658 0 1 0 0,-1.316 z"
     style="color:#000000;font-weight:400;line-height:normal;font-family:sans-serif;font-variant-ligatures:normal;font-variant-position:normal;font-variant-caps:normal;font-variant-numeric:normal;font-variant-alternates:normal;font-feature-settings:normal;text-indent:0;text-align:start;text-decoration:none;text-decoration-line:none;text-decoration-style:solid;text-decoration-color:#000000;text-transform:none;text-orientation:mixed;white-space:normal;shape-padding:0;overflow:visible;isolation:auto;mix-blend-mode:normal;solid-color:#000000;solid-opacity:1;fill:#12c221;enable-background:accumulate"
     overflow="visible"
     id="path3871"
     inkscape:connector-curvature="0" />
  <path
     d="M 3.048,3.95 A 3.05,3.05 0 0 0 0.007,6.99 h 1.315 c 0,-0.96 0.765,-1.724 1.726,-1.724 z"
     style="color:#000000;font-weight:400;line-height:normal;font-family:sans-serif;font-variant-ligatures:normal;font-variant-position:normal;font-variant-caps:normal;font-variant-numeric:normal;font-variant-alternates:normal;font-feature-settings:normal;text-indent:0;text-align:start;text-decoration:none;text-decoration-line:none;text-decoration-style:solid;text-decoration-color:#000000;text-transform:none;text-orientation:mixed;white-space:normal;shape-padding:0;overflow:visible;isolation:auto;mix-blend-mode:normal;solid-color:#000000;solid-opacity:1;fill:#12c221;enable-background:accumulate"
     overflow="visible"
     id="path3873"
     inkscape:connector-curvature="0" />
  <path
     d="m 3.057,3.95 h -0.01 v 1.316 h 0.01 c 0.96,0 1.725,0.764 1.725,1.725 0,0.96 -0.764,1.725 -1.725,1.725 -0.96,0 -1.725,-0.765 -1.725,-1.725 H 0.016 a 3.05,3.05 0 0 0 3.041,3.04 3.05,3.05 0 0 0 3.04,-3.04 3.05,3.05 0 0 0 -3.04,-3.04 z"
     style="color:#000000;font-weight:400;line-height:normal;font-family:sans-serif;font-variant-ligatures:normal;font-variant-position:normal;font-variant-caps:normal;font-variant-numeric:normal;font-variant-alternates:normal;font-feature-settings:normal;text-indent:0;text-align:start;text-decoration:none;text-decoration-line:none;text-decoration-style:solid;text-decoration-color:#000000;text-transform:none;text-orientation:mixed;white-space:normal;shape-padding:0;overflow:visible;isolation:auto;mix-blend-mode:normal;solid-color:#000000;solid-opacity:1;fill:#ffae06;enable-background:accumulate;fill-opacity:1"
     overflow="visible"
     id="path3875"
     inkscape:connector-curvature="0" />
  <path
     d="M 2.631,10e-4 A 2.672,2.672 0 0 0 0,2.279 h 1.341 c 0.162,-0.56 0.673,-0.963 1.29,-0.963 0.75,0 1.344,0.594 1.344,1.344 0,0.617 -0.402,1.128 -0.962,1.29 V 5.292 A 2.672,2.672 0 0 0 5.291,2.66 2.67,2.67 0 0 0 2.631,0 Z"
     style="color:#000000;font-weight:400;line-height:normal;font-family:sans-serif;font-variant-ligatures:normal;font-variant-position:normal;font-variant-caps:normal;font-variant-numeric:normal;font-variant-alternates:normal;font-feature-settings:normal;text-indent:0;text-align:start;text-decoration:none;text-decoration-line:none;text-decoration-style:solid;text-decoration-color:#000000;text-transform:none;text-orientation:mixed;white-space:normal;shape-padding:0;overflow:visible;isolation:auto;mix-blend-mode:normal;solid-color:#000000;solid-opacity:1;fill:#12c221;enable-background:accumulate"
     overflow="visible"
     id="path3877"
     inkscape:connector-curvature="0" />
  <path
     d="M 0.655,1.558 A 0.658,0.658 0 0 0 0.007,2.225 v 4.766 a 0.658,0.658 0 1 0 1.315,0 V 2.225 A 0.658,0.658 0 0 0 0.655,1.558 Z"
     style="color:#000000;font-weight:400;line-height:normal;font-family:sans-serif;font-variant-ligatures:normal;font-variant-position:normal;font-variant-caps:normal;font-variant-numeric:normal;font-variant-alternates:normal;font-feature-settings:normal;text-indent:0;text-align:start;text-decoration:none;text-decoration-line:none;text-decoration-style:solid;text-decoration-color:#000000;text-transform:none;text-orientation:mixed;white-space:normal;shape-padding:0;overflow:visible;isolation:auto;mix-blend-mode:normal;solid-color:#000000;solid-opacity:1;fill:#ffae06;enable-background:accumulate;fill-opacity:1"
     overflow="visible"
     id="path3879"
     inkscape:connector-curvature="0" />
  <g
     id="g3885"
     word-spacing="0"
     letter-spacing="0"
     font-size="3.684"
     font-weight="400"
     style="font-weight:400;font-size:3.68400002px;line-height:1.25;font-family:'Arial Rounded MT Bold';-inkscape-font-specification:'Arial Rounded MT Bold, Normal';font-variant-ligatures:normal;font-variant-caps:normal;font-variant-numeric:normal;font-feature-settings:normal;text-align:start;letter-spacing:0;word-spacing:0;writing-mode:tb-rl;fill:#12c221;stroke-width:0.092"
     aria-label="SURE"
     transform="translate(-1027.767,-438.374)">
    <path
       inkscape:connector-curvature="0"
       id="path3883"
       style="-inkscape-font-specification:'Arial Rounded MT Bold, Normal';font-variant-ligatures:normal;font-variant-caps:normal;font-variant-numeric:normal;font-feature-settings:normal;text-align:start"
       d="m 1036.959,446.31 q 0.239,0 0.43,0.124 0.19,0.122 0.298,0.36 0.108,0.237 0.108,0.563 0,0.39 -0.147,0.644 -0.107,0.18 -0.283,0.293 -0.178,0.111 -0.345,0.111 -0.097,0 -0.166,-0.066 -0.07,-0.069 -0.07,-0.173 0,-0.084 0.054,-0.142 0.054,-0.06 0.16,-0.1 0.126,-0.051 0.21,-0.109 0.086,-0.059 0.141,-0.165 0.054,-0.106 0.054,-0.279 0,-0.237 -0.11,-0.385 -0.111,-0.15 -0.277,-0.15 -0.131,0 -0.212,0.082 -0.083,0.079 -0.126,0.207 -0.043,0.125 -0.092,0.338 -0.067,0.284 -0.155,0.476 -0.09,0.191 -0.242,0.304 -0.155,0.112 -0.384,0.112 -0.217,0 -0.386,-0.119 -0.17,-0.118 -0.26,-0.343 -0.091,-0.225 -0.091,-0.53 0,-0.242 0.06,-0.418 0.06,-0.178 0.16,-0.295 0.1,-0.117 0.21,-0.171 0.11,-0.054 0.213,-0.054 0.095,0 0.173,0.068 0.076,0.067 0.076,0.167 0,0.092 -0.045,0.14 -0.047,0.048 -0.151,0.103 -0.15,0.072 -0.232,0.173 -0.084,0.1 -0.084,0.324 0,0.207 0.092,0.334 0.09,0.126 0.218,0.126 0.079,0 0.136,-0.043 0.058,-0.043 0.1,-0.119 0.04,-0.075 0.064,-0.153 0.023,-0.077 0.068,-0.255 0.052,-0.223 0.115,-0.403 0.063,-0.182 0.153,-0.308 0.09,-0.127 0.229,-0.197 0.136,-0.072 0.336,-0.072 z m -0.299,-0.457 h -1.268 q -0.162,0 -0.243,-0.072 -0.081,-0.074 -0.081,-0.193 0,-0.124 0.08,-0.196 0.082,-0.073 0.244,-0.073 h 1.297 q 0.221,0 0.37,-0.05 0.148,-0.05 0.23,-0.175 0.082,-0.126 0.082,-0.353 0,-0.313 -0.166,-0.442 -0.167,-0.13 -0.505,-0.13 h -1.308 q -0.164,0 -0.243,-0.072 -0.081,-0.072 -0.081,-0.192 0,-0.121 0.08,-0.195 0.08,-0.075 0.244,-0.075 h 1.268 q 0.31,0 0.516,0.06 0.207,0.06 0.364,0.227 0.133,0.144 0.194,0.335 0.06,0.19 0.06,0.446 0,0.304 -0.064,0.524 -0.067,0.22 -0.203,0.358 -0.139,0.138 -0.353,0.203 -0.216,0.065 -0.514,0.065 z m -0.038,-3.513 v 0.187 h 0.847 q 0.168,0 0.247,0.073 0.079,0.074 0.079,0.193 0,0.128 -0.083,0.198 -0.083,0.07 -0.243,0.07 h -2.03 q -0.172,0 -0.25,-0.077 -0.076,-0.078 -0.076,-0.25 v -0.87 q 0,-0.18 0.016,-0.307 0.014,-0.128 0.06,-0.23 0.053,-0.124 0.15,-0.22 0.097,-0.095 0.227,-0.144 0.127,-0.05 0.271,-0.05 0.295,0 0.472,0.167 0.176,0.166 0.25,0.504 0.076,-0.142 0.223,-0.272 0.147,-0.13 0.315,-0.23 0.165,-0.102 0.3,-0.158 0.133,-0.058 0.184,-0.058 0.052,0 0.104,0.034 0.05,0.033 0.079,0.09 0.03,0.058 0.03,0.133 0,0.09 -0.042,0.152 -0.041,0.06 -0.106,0.106 -0.065,0.043 -0.191,0.118 l -0.356,0.214 q -0.196,0.116 -0.299,0.207 -0.102,0.09 -0.14,0.184 -0.038,0.093 -0.038,0.236 z m -1.108,-0.306 v 0.493 h 0.725 v -0.479 q 0,-0.192 -0.032,-0.324 -0.034,-0.13 -0.113,-0.2 -0.081,-0.07 -0.222,-0.07 -0.11,0 -0.192,0.056 -0.085,0.056 -0.126,0.155 -0.039,0.094 -0.039,0.369 z m 0.011,-3.364 v 1.203 h 0.647 v -1.108 q 0,-0.122 0.056,-0.181 0.054,-0.062 0.144,-0.062 0.09,0 0.148,0.06 0.056,0.06 0.056,0.183 v 1.108 h 0.75 v -1.244 q 0,-0.126 0.059,-0.19 0.058,-0.064 0.155,-0.064 0.093,0 0.153,0.065 0.058,0.063 0.058,0.189 v 1.451 q 0,0.175 -0.077,0.252 -0.077,0.076 -0.25,0.076 h -1.983 q -0.115,0 -0.187,-0.034 -0.074,-0.035 -0.106,-0.107 -0.034,-0.073 -0.034,-0.187 v -1.41 q 0,-0.128 0.058,-0.189 0.056,-0.063 0.147,-0.063 0.093,0 0.151,0.063 0.056,0.061 0.056,0.189 z" />
  </g>
</svg>
