<svg xmlns="http://www.w3.org/2000/svg" xmlns:xlink="http://www.w3.org/1999/xlink" width="50mm" height="50mm" viewBox="0 0 50 50"><defs><linearGradient id="c"><stop offset="0" stop-color="#688e44"/><stop offset=".5" stop-color="#688e44"/><stop offset=".85" stop-color="#90b86b"/><stop offset="1" stop-color="#688e44"/></linearGradient><linearGradient id="b"><stop offset="0" stop-color="#202020"/><stop offset=".539" stop-color="#202020"/><stop offset=".709" stop-color="#777"/><stop offset="1" stop-color="#202020"/></linearGradient><linearGradient id="a"><stop offset="0" stop-color="#aeaeae"/><stop offset="1" stop-color="#eee"/></linearGradient><linearGradient xlink:href="#a" id="f" gradientUnits="userSpaceOnUse" x1="169.807" y1="309.798" x2="116.252" y2="226.152"/><linearGradient xlink:href="#a" id="d" gradientUnits="userSpaceOnUse" x1="169.807" y1="309.798" x2="116.252" y2="226.152"/><linearGradient xlink:href="#b" id="h" gradientUnits="userSpaceOnUse" x1="165.375" y1="307.077" x2="120.569" y2="232.935"/><linearGradient xlink:href="#b" id="g" gradientUnits="userSpaceOnUse" x1="165.375" y1="307.077" x2="120.569" y2="232.935"/><linearGradient xlink:href="#c" id="i" gradientUnits="userSpaceOnUse" gradientTransform="translate(1011.4 421.508) scale(.11551)" x1="234.104" y1="261.542" x2="150.844" y2="117.331"/><filter id="e" color-interpolation-filters="sRGB"><feFlood flood-opacity=".498" flood-color="#000" result="flood"/><feComposite in="flood" in2="SourceGraphic" operator="in" result="composite1"/><feGaussianBlur in="composite1" stdDeviation="1" result="blur"/><feOffset dx="2" dy="2" result="offset"/><feComposite in="SourceGraphic" in2="offset" result="fbSourceGraphic"/><feColorMatrix result="fbSourceGraphicAlpha" in="fbSourceGraphic" values="0 0 0 -1 0 0 0 0 -1 0 0 0 0 -1 0 0 0 0 1 0"/><feFlood flood-opacity=".498" flood-color="#000" result="flood"/><feComposite in2="fbSourceGraphic" in="flood" operator="in" result="composite1"/><feGaussianBlur in="composite1" stdDeviation="1" result="blur"/><feOffset dx="2" dy="2" result="offset"/><feComposite in2="offset" in="fbSourceGraphic" result="composite2"/></filter></defs><g transform="matrix(1.30534 0 0 1.30534 -1323.132 -554.493)"><g transform="translate(978.212 341.677) scale(.38161)" fill="url(#d)" stroke="#eee" stroke-width=".303" filter="url(#e)"><path d="M123.837 305.77c-4.392-3.398-5.675-19.752-6.871-34.17-1.03-12.408-.791-24.46-.25-27.465.916-5.08 2.549-8.867 6.475-12.42 4.087-3.697 12.01-5.563 19.839-5.563 7.828 0 15.751 1.866 19.838 5.563 3.926 3.553 5.559 7.34 6.475 12.42.542 3.004.78 15.057-.25 27.466-1.196 14.417-2.479 30.771-6.87 34.17-4.513 3.49-13.78 3.996-19.193 4.027-5.414-.031-14.68-.537-19.193-4.028z" fill="url(#f)"/></g><path d="M153.472 306.147c2.099-.41 6.06-1.868 7.441-5.271 2.533-6.239 3.935-17.054 4.186-28.37.197-8.85.578-20.148-.155-24.03-.89-4.712-.383-6.78-4.883-11.317-4.872-4.911-17.089-4.186-17.089-4.186s-12.216-.725-17.088 4.186c-4.5 4.536-3.994 6.605-4.884 11.317-.733 3.882-.351 15.18-.155 24.03.251 11.316 1.653 22.131 4.186 28.37 1.381 3.403 5.342 4.862 7.441 5.27 3.71.723 6.986.93 10.5.93 3.514 0 6.79-.207 10.5-.93z" fill="url(#h)" transform="translate(978.212 341.677) scale(.38161)" stroke="#eee" stroke-width=".303"/><path d="M1037.053 456.89c.3-.576-1.573-3.291-4.227-3.291-2.654 0-4.527 2.715-4.227 3.291.3.576 2.055.758 4.227.767 2.172-.009 3.927-.191 4.227-.767z" fill="#707070" stroke="#353535" stroke-width=".05762311"/><rect ry=".351" y="435.061" x="1027.118" height="16.658" width="11.323" fill="#fff"/><rect width="11.323" height="16.658" x="1027.118" y="435.061" ry=".351" opacity=".55" fill="url(#i)"/><g fill="none" stroke="#999"><path d="M1033.794 454.373s-.42.146-.995.146a3.33 3.33 0 01-.994-.146M1034.788 455.308s-.908.205-1.961.205-1.961-.205-1.961-.205M1029.873 456.2s.985.394 2.947.394c1.963 0 2.947-.395 2.947-.395" stroke-linecap="round" stroke-width=".38161"/></g></g></svg>