<svg xmlns="http://www.w3.org/2000/svg" width="50mm" height="50mm" viewBox="0 0 50 50"><defs><filter id="a" color-interpolation-filters="sRGB"><feFlood flood-opacity=".498" flood-color="#000" result="flood"/><feComposite in="flood" in2="SourceGraphic" operator="in" result="composite1"/><feGaussianBlur in="composite1" stdDeviation="1" result="blur"/><feOffset dx="2" dy="2" result="offset"/><feComposite in="SourceGraphic" in2="offset" result="composite2"/></filter></defs><g transform="rotate(19.217 545.16 -306.845) scale(.20887)" filter="url(#a)"><path d="M814.56 742.024h21.357l11.955 9.967v145.308H802.95V751.99z" fill="#615233"/><path d="M802.95 897.299v33.51h44.922V897.3" fill="#2c2c2a"/><path d="M814.08 897.431v16.599l3.204 2.957v13.186h4.93v-13.062l1.601-3.081V897.43h-2.033v14.627h-5.484v-14.627zM838.103 897.431v16.599l-3.204 2.957v13.186h-4.93v-13.062l-1.601-3.081V897.43h2.033v14.627h5.484v-14.627z" fill="#41413e"/><path d="M814.56 742.024l-3.534 3.362v116.512s0 12.534 14.528 12.534c14.529 0 14.529-12.534 14.529-12.534V745.386l-4.166-3.362z" fill="#e8e2d4"/><path d="M823.855 742.024v28.699a3.607 3.607 0 00-1.434 2.875 3.607 3.607 0 003.606 3.607 3.607 3.607 0 003.607-3.607 3.607 3.607 0 00-1.434-2.873v-28.7z" fill="#2c2c2a"/></g><g transform="rotate(11.146 871.7 -627.524) scale(.20887)" filter="url(#a)"><path d="M814.56 742.024h21.357l11.955 9.967v145.308H802.95V751.99z" fill="#615233"/><path d="M802.95 897.299v33.51h44.922V897.3" fill="#2c2c2a"/><path d="M814.08 897.431v16.599l3.204 2.957v13.186h4.93v-13.062l1.601-3.081V897.43h-2.033v14.627h-5.484v-14.627zM838.103 897.431v16.599l-3.204 2.957v13.186h-4.93v-13.062l-1.601-3.081V897.43h2.033v14.627h5.484v-14.627z" fill="#41413e"/><path d="M814.56 742.024l-3.534 3.362v116.512s0 12.534 14.528 12.534c14.529 0 14.529-12.534 14.529-12.534V745.386l-4.166-3.362z" fill="#e8e2d4"/><path d="M823.855 742.024v28.699a3.607 3.607 0 00-1.434 2.875 3.607 3.607 0 003.606 3.607 3.607 3.607 0 003.607-3.607 3.607 3.607 0 00-1.434-2.873v-28.7z" fill="#2c2c2a"/></g><g transform="rotate(3.734 2406.575 -2145.552) scale(.20887)" filter="url(#a)"><path d="M814.56 742.024h21.357l11.955 9.967v145.308H802.95V751.99z" fill="#615233"/><path d="M802.95 897.299v33.51h44.922V897.3" fill="#2c2c2a"/><path d="M814.08 897.431v16.599l3.204 2.957v13.186h4.93v-13.062l1.601-3.081V897.43h-2.033v14.627h-5.484v-14.627zM838.103 897.431v16.599l-3.204 2.957v13.186h-4.93v-13.062l-1.601-3.081V897.43h2.033v14.627h5.484v-14.627z" fill="#41413e"/><path d="M814.56 742.024l-3.534 3.362v116.512s0 12.534 14.528 12.534c14.529 0 14.529-12.534 14.529-12.534V745.386l-4.166-3.362z" fill="#e8e2d4"/><path d="M823.855 742.024v28.699a3.607 3.607 0 00-1.434 2.875 3.607 3.607 0 003.606 3.607 3.607 3.607 0 003.607-3.607 3.607 3.607 0 00-1.434-2.873v-28.7z" fill="#2c2c2a"/></g><g transform="rotate(-8.253 -946.265 1154.358) scale(.20887)" filter="url(#a)"><path d="M814.56 742.024h21.357l11.955 9.967v145.308H802.95V751.99z" fill="#615233"/><path d="M802.95 897.299v33.51h44.922V897.3" fill="#2c2c2a"/><path d="M814.08 897.431v16.599l3.204 2.957v13.186h4.93v-13.062l1.601-3.081V897.43h-2.033v14.627h-5.484v-14.627zM838.103 897.431v16.599l-3.204 2.957v13.186h-4.93v-13.062l-1.601-3.081V897.43h2.033v14.627h5.484v-14.627z" fill="#41413e"/><path d="M814.56 742.024l-3.534 3.362v116.512s0 12.534 14.528 12.534c14.529 0 14.529-12.534 14.529-12.534V745.386l-4.166-3.362z" fill="#e8e2d4"/><path d="M823.855 742.024v28.699a3.607 3.607 0 00-1.434 2.875 3.607 3.607 0 003.606 3.607 3.607 3.607 0 003.607-3.607 3.607 3.607 0 00-1.434-2.873v-28.7z" fill="#2c2c2a"/></g><g transform="rotate(-17.221 -398.343 621.228) scale(.20887)" filter="url(#a)"><path d="M814.56 742.024h21.357l11.955 9.967v145.308H802.95V751.99z" fill="#615233"/><path d="M802.95 897.299v33.51h44.922V897.3" fill="#2c2c2a"/><path d="M814.08 897.431v16.599l3.204 2.957v13.186h4.93v-13.062l1.601-3.081V897.43h-2.033v14.627h-5.484v-14.627zM838.103 897.431v16.599l-3.204 2.957v13.186h-4.93v-13.062l-1.601-3.081V897.43h2.033v14.627h5.484v-14.627z" fill="#41413e"/><path d="M814.56 742.024l-3.534 3.362v116.512s0 12.534 14.528 12.534c14.529 0 14.529-12.534 14.529-12.534V745.386l-4.166-3.362z" fill="#e8e2d4"/><path d="M823.855 742.024v28.699a3.607 3.607 0 00-1.434 2.875 3.607 3.607 0 003.606 3.607 3.607 3.607 0 003.607-3.607 3.607 3.607 0 00-1.434-2.873v-28.7z" fill="#2c2c2a"/></g></svg>