<?xml version="1.0" encoding="UTF-8" standalone="no"?>
<!-- Created with Inkscape (http://www.inkscape.org/) -->

<svg
   xmlns:dc="http://purl.org/dc/elements/1.1/"
   xmlns:cc="http://creativecommons.org/ns#"
   xmlns:rdf="http://www.w3.org/1999/02/22-rdf-syntax-ns#"
   xmlns:svg="http://www.w3.org/2000/svg"
   xmlns="http://www.w3.org/2000/svg"
   xmlns:sodipodi="http://sodipodi.sourceforge.net/DTD/sodipodi-0.dtd"
   xmlns:inkscape="http://www.inkscape.org/namespaces/inkscape"
   width="50mm"
   height="50mm"
   viewBox="0 0 50 50"
   version="1.1"
   id="svg8"
   sodipodi:docname="product_2.svg"
   inkscape:version="0.92.2 (5c3e80d, 2017-08-06)">
  <defs
     id="defs2">
    <filter
       style="color-interpolation-filters:sRGB"
       inkscape:label="Drop Shadow"
       id="filter5394">
      <feFlood
         flood-opacity="0.498039"
         flood-color="rgb(0,0,0)"
         result="flood"
         id="feFlood5384" />
      <feComposite
         in="flood"
         in2="SourceGraphic"
         operator="in"
         result="composite1"
         id="feComposite5386" />
      <feGaussianBlur
         in="composite1"
         stdDeviation="1"
         result="blur"
         id="feGaussianBlur5388" />
      <feOffset
         dx="2"
         dy="2"
         result="offset"
         id="feOffset5390" />
      <feComposite
         in="SourceGraphic"
         in2="offset"
         operator="over"
         result="fbSourceGraphic"
         id="feComposite5392" />
      <feColorMatrix
         result="fbSourceGraphicAlpha"
         in="fbSourceGraphic"
         values="0 0 0 -1 0 0 0 0 -1 0 0 0 0 -1 0 0 0 0 1 0"
         id="feColorMatrix5396" />
      <feFlood
         id="feFlood5398"
         flood-opacity="0.498039"
         flood-color="rgb(0,0,0)"
         result="flood"
         in="fbSourceGraphic" />
      <feComposite
         in2="fbSourceGraphic"
         id="feComposite5400"
         in="flood"
         operator="in"
         result="composite1" />
      <feGaussianBlur
         id="feGaussianBlur5402"
         in="composite1"
         stdDeviation="1"
         result="blur" />
      <feOffset
         id="feOffset5404"
         dx="2"
         dy="2"
         result="offset" />
      <feComposite
         in2="offset"
         id="feComposite5406"
         in="fbSourceGraphic"
         operator="over"
         result="composite2" />
    </filter>
    <filter
       style="color-interpolation-filters:sRGB"
       inkscape:label="Drop Shadow"
       id="filter5718">
      <feFlood
         flood-opacity="0.498039"
         flood-color="rgb(0,0,0)"
         result="flood"
         id="feFlood5708" />
      <feComposite
         in="flood"
         in2="SourceGraphic"
         operator="in"
         result="composite1"
         id="feComposite5710" />
      <feGaussianBlur
         in="composite1"
         stdDeviation="1"
         result="blur"
         id="feGaussianBlur5712" />
      <feOffset
         dx="2"
         dy="2"
         result="offset"
         id="feOffset5714" />
      <feComposite
         in="SourceGraphic"
         in2="offset"
         operator="over"
         result="composite2"
         id="feComposite5716" />
    </filter>
    <filter
       style="color-interpolation-filters:sRGB"
       inkscape:label="Drop Shadow"
       id="filter5880">
      <feFlood
         flood-opacity="0.498039"
         flood-color="rgb(0,0,0)"
         result="flood"
         id="feFlood5870" />
      <feComposite
         in="flood"
         in2="SourceGraphic"
         operator="in"
         result="composite1"
         id="feComposite5872" />
      <feGaussianBlur
         in="composite1"
         stdDeviation="1"
         result="blur"
         id="feGaussianBlur5874" />
      <feOffset
         dx="2"
         dy="2"
         result="offset"
         id="feOffset5876" />
      <feComposite
         in="SourceGraphic"
         in2="offset"
         operator="over"
         result="composite2"
         id="feComposite5878" />
    </filter>
  </defs>
  <sodipodi:namedview
     id="base"
     pagecolor="#ffffff"
     bordercolor="#666666"
     borderopacity="1.0"
     inkscape:pageopacity="0.0"
     inkscape:pageshadow="2"
     inkscape:zoom="2.0096102"
     inkscape:cx="4.1058553"
     inkscape:cy="94.922585"
     inkscape:document-units="mm"
     inkscape:current-layer="layer1"
     showgrid="false"
     inkscape:snap-bbox="true"
     inkscape:snap-bbox-midpoints="true"
     inkscape:snap-object-midpoints="true"
     showguides="true"
     inkscape:guide-bbox="true"
     inkscape:bbox-nodes="true"
     inkscape:window-width="1366"
     inkscape:window-height="745"
     inkscape:window-x="-8"
     inkscape:window-y="-8"
     inkscape:window-maximized="1"
     inkscape:snap-global="true"
     inkscape:snap-bbox-edge-midpoints="true"
     inkscape:bbox-paths="true"
     inkscape:snap-center="true"
     fit-margin-top="0"
     fit-margin-left="0"
     fit-margin-right="0"
     fit-margin-bottom="0"
     inkscape:snap-page="true" />
  <metadata
     id="metadata5">
    <rdf:RDF>
      <cc:Work
         rdf:about="">
        <dc:format>image/svg+xml</dc:format>
        <dc:type
           rdf:resource="http://purl.org/dc/dcmitype/StillImage" />
        <dc:title></dc:title>
      </cc:Work>
    </rdf:RDF>
  </metadata>
  <g
     inkscape:label="Layer 1"
     inkscape:groupmode="layer"
     id="layer1"
     transform="translate(-185.78088,-399.47841)">
    <g
       transform="matrix(0.20887108,0,0,0.20887108,59.360233,199.59093)"
       id="g5887">
      <g
         transform="rotate(19.217494,86.236785,796.97561)"
         id="g5828"
         style="filter:url(#filter5880)">
        <path
           style="fill:#615233;fill-opacity:1;stroke:none;stroke-width:0.26458332px;stroke-linecap:butt;stroke-linejoin:miter;stroke-opacity:1"
           d="m 814.56062,742.02426 h 21.35671 l 11.95423,9.96646 v 145.30815 h -44.9213 V 751.99072 Z"
           id="path5816"
           inkscape:connector-curvature="0"
           sodipodi:nodetypes="ccccccc" />
        <path
           style="fill:#2c2c2a;fill-opacity:1;stroke:none;stroke-width:0.26458332px;stroke-linecap:butt;stroke-linejoin:miter;stroke-opacity:1"
           d="m 802.95024,897.29886 v 33.51043 h 44.9213 v -33.51043"
           id="path5818"
           inkscape:connector-curvature="0" />
        <path
           style="fill:#41413e;fill-opacity:1;stroke:none;stroke-width:0.26458332px;stroke-linecap:butt;stroke-linejoin:miter;stroke-opacity:1"
           d="m 814.07991,897.43118 v 16.5985 l 3.20408,2.95762 v 13.18596 h 4.92932 v -13.06275 l 1.60203,-3.08081 v -16.59852 h -2.03333 v 14.62677 h -5.48388 v -14.62677 z"
           id="path5820"
           inkscape:connector-curvature="0"
           sodipodi:nodetypes="ccccccccccccc" />
        <path
           sodipodi:nodetypes="ccccccccccccc"
           inkscape:connector-curvature="0"
           id="path5822"
           d="m 838.10293,897.43118 v 16.5985 l -3.20408,2.95762 v 13.18596 h -4.92932 v -13.06275 l -1.60203,-3.08081 v -16.59852 h 2.03333 v 14.62677 h 5.48388 v -14.62677 z"
           style="fill:#41413e;fill-opacity:1;stroke:none;stroke-width:0.26458332px;stroke-linecap:butt;stroke-linejoin:miter;stroke-opacity:1" />
        <path
           inkscape:connector-curvature="0"
           style="fill:#e8e2d4;fill-opacity:1;stroke:none;stroke-width:0.99999994px;stroke-linecap:butt;stroke-linejoin:miter;stroke-opacity:1"
           d="m 3078.6543,2804.502 -13.3594,12.705 v 440.3594 c 0,0 -3e-4,47.373 54.9102,47.3731 54.9105,0 54.9101,-47.3731 54.9101,-47.3731 V 2817.207 l -15.7422,-12.705 z"
           transform="scale(0.26458333)"
           id="path5824" />
        <path
           inkscape:connector-curvature="0"
           style="opacity:1;fill:#2c2c2a;fill-opacity:1;stroke:none;stroke-width:1.88976383;stroke-linecap:round;stroke-linejoin:round;stroke-miterlimit:4;stroke-dasharray:none;stroke-dashoffset:0;stroke-opacity:1"
           d="m 3113.7832,2804.502 v 108.4668 a 13.631497,13.631497 0 0 0 -5.4219,10.8652 13.631497,13.631497 0 0 0 13.6309,13.6328 13.631497,13.631497 0 0 0 13.6328,-13.6328 13.631497,13.631497 0 0 0 -5.4219,-10.8594 V 2804.502 Z"
           id="path5826"
           transform="scale(0.26458333)" />
      </g>
      <g
         transform="rotate(11.147983,-427.0342,574.95126)"
         id="g5842"
         style="filter:url(#filter5880)">
        <path
           style="fill:#615233;fill-opacity:1;stroke:none;stroke-width:0.26458332px;stroke-linecap:butt;stroke-linejoin:miter;stroke-opacity:1"
           d="m 814.56062,742.02426 h 21.35671 l 11.95423,9.96646 v 145.30815 h -44.9213 V 751.99072 Z"
           id="path5830"
           inkscape:connector-curvature="0"
           sodipodi:nodetypes="ccccccc" />
        <path
           style="fill:#2c2c2a;fill-opacity:1;stroke:none;stroke-width:0.26458332px;stroke-linecap:butt;stroke-linejoin:miter;stroke-opacity:1"
           d="m 802.95024,897.29886 v 33.51043 h 44.9213 v -33.51043"
           id="path5832"
           inkscape:connector-curvature="0" />
        <path
           style="fill:#41413e;fill-opacity:1;stroke:none;stroke-width:0.26458332px;stroke-linecap:butt;stroke-linejoin:miter;stroke-opacity:1"
           d="m 814.07991,897.43118 v 16.5985 l 3.20408,2.95762 v 13.18596 h 4.92932 v -13.06275 l 1.60203,-3.08081 v -16.59852 h -2.03333 v 14.62677 h -5.48388 v -14.62677 z"
           id="path5834"
           inkscape:connector-curvature="0"
           sodipodi:nodetypes="ccccccccccccc" />
        <path
           sodipodi:nodetypes="ccccccccccccc"
           inkscape:connector-curvature="0"
           id="path5836"
           d="m 838.10293,897.43118 v 16.5985 l -3.20408,2.95762 v 13.18596 h -4.92932 v -13.06275 l -1.60203,-3.08081 v -16.59852 h 2.03333 v 14.62677 h 5.48388 v -14.62677 z"
           style="fill:#41413e;fill-opacity:1;stroke:none;stroke-width:0.26458332px;stroke-linecap:butt;stroke-linejoin:miter;stroke-opacity:1" />
        <path
           inkscape:connector-curvature="0"
           style="fill:#e8e2d4;fill-opacity:1;stroke:none;stroke-width:0.99999994px;stroke-linecap:butt;stroke-linejoin:miter;stroke-opacity:1"
           d="m 3078.6543,2804.502 -13.3594,12.705 v 440.3594 c 0,0 -3e-4,47.373 54.9102,47.3731 54.9105,0 54.9101,-47.3731 54.9101,-47.3731 V 2817.207 l -15.7422,-12.705 z"
           transform="scale(0.26458333)"
           id="path5838" />
        <path
           inkscape:connector-curvature="0"
           style="opacity:1;fill:#2c2c2a;fill-opacity:1;stroke:none;stroke-width:1.88976383;stroke-linecap:round;stroke-linejoin:round;stroke-miterlimit:4;stroke-dasharray:none;stroke-dashoffset:0;stroke-opacity:1"
           d="m 3113.7832,2804.502 v 108.4668 a 13.631497,13.631497 0 0 0 -5.4219,10.8652 13.631497,13.631497 0 0 0 13.6309,13.6328 13.631497,13.631497 0 0 0 13.6328,-13.6328 13.631497,13.631497 0 0 0 -5.4219,-10.8594 V 2804.502 Z"
           id="path5840"
           transform="scale(0.26458333)" />
      </g>
      <g
         style="filter:url(#filter5880)"
         id="g5856"
         transform="rotate(3.7381145,-2839.3494,-520.82582)">
        <path
           sodipodi:nodetypes="ccccccc"
           inkscape:connector-curvature="0"
           id="path5844"
           d="m 814.56062,742.02426 h 21.35671 l 11.95423,9.96646 v 145.30815 h -44.9213 V 751.99072 Z"
           style="fill:#615233;fill-opacity:1;stroke:none;stroke-width:0.26458332px;stroke-linecap:butt;stroke-linejoin:miter;stroke-opacity:1" />
        <path
           inkscape:connector-curvature="0"
           id="path5846"
           d="m 802.95024,897.29886 v 33.51043 h 44.9213 v -33.51043"
           style="fill:#2c2c2a;fill-opacity:1;stroke:none;stroke-width:0.26458332px;stroke-linecap:butt;stroke-linejoin:miter;stroke-opacity:1" />
        <path
           sodipodi:nodetypes="ccccccccccccc"
           inkscape:connector-curvature="0"
           id="path5848"
           d="m 814.07991,897.43118 v 16.5985 l 3.20408,2.95762 v 13.18596 h 4.92932 v -13.06275 l 1.60203,-3.08081 v -16.59852 h -2.03333 v 14.62677 h -5.48388 v -14.62677 z"
           style="fill:#41413e;fill-opacity:1;stroke:none;stroke-width:0.26458332px;stroke-linecap:butt;stroke-linejoin:miter;stroke-opacity:1" />
        <path
           style="fill:#41413e;fill-opacity:1;stroke:none;stroke-width:0.26458332px;stroke-linecap:butt;stroke-linejoin:miter;stroke-opacity:1"
           d="m 838.10293,897.43118 v 16.5985 l -3.20408,2.95762 v 13.18596 h -4.92932 v -13.06275 l -1.60203,-3.08081 v -16.59852 h 2.03333 v 14.62677 h 5.48388 v -14.62677 z"
           id="path5850"
           inkscape:connector-curvature="0"
           sodipodi:nodetypes="ccccccccccccc" />
        <path
           id="path5852"
           transform="scale(0.26458333)"
           d="m 3078.6543,2804.502 -13.3594,12.705 v 440.3594 c 0,0 -3e-4,47.373 54.9102,47.3731 54.9105,0 54.9101,-47.3731 54.9101,-47.3731 V 2817.207 l -15.7422,-12.705 z"
           style="fill:#e8e2d4;fill-opacity:1;stroke:none;stroke-width:0.99999994px;stroke-linecap:butt;stroke-linejoin:miter;stroke-opacity:1"
           inkscape:connector-curvature="0" />
        <path
           transform="scale(0.26458333)"
           id="path5854"
           d="m 3113.7832,2804.502 v 108.4668 a 13.631497,13.631497 0 0 0 -5.4219,10.8652 13.631497,13.631497 0 0 0 13.6309,13.6328 13.631497,13.631497 0 0 0 13.6328,-13.6328 13.631497,13.631497 0 0 0 -5.4219,-10.8594 V 2804.502 Z"
           style="opacity:1;fill:#2c2c2a;fill-opacity:1;stroke:none;stroke-width:1.88976383;stroke-linecap:round;stroke-linejoin:round;stroke-miterlimit:4;stroke-dasharray:none;stroke-dashoffset:0;stroke-opacity:1"
           inkscape:connector-curvature="0" />
      </g>
      <g
         transform="rotate(-8.255435,2402.4096,1811.5626)"
         id="g5871"
         style="filter:url(#filter5880)">
        <path
           style="fill:#615233;fill-opacity:1;stroke:none;stroke-width:0.26458332px;stroke-linecap:butt;stroke-linejoin:miter;stroke-opacity:1"
           d="m 814.56062,742.02426 h 21.35671 l 11.95423,9.96646 v 145.30815 h -44.9213 V 751.99072 Z"
           id="path5859"
           inkscape:connector-curvature="0"
           sodipodi:nodetypes="ccccccc" />
        <path
           style="fill:#2c2c2a;fill-opacity:1;stroke:none;stroke-width:0.26458332px;stroke-linecap:butt;stroke-linejoin:miter;stroke-opacity:1"
           d="m 802.95024,897.29886 v 33.51043 h 44.9213 v -33.51043"
           id="path5861"
           inkscape:connector-curvature="0" />
        <path
           style="fill:#41413e;fill-opacity:1;stroke:none;stroke-width:0.26458332px;stroke-linecap:butt;stroke-linejoin:miter;stroke-opacity:1"
           d="m 814.07991,897.43118 v 16.5985 l 3.20408,2.95762 v 13.18596 h 4.92932 v -13.06275 l 1.60203,-3.08081 v -16.59852 h -2.03333 v 14.62677 h -5.48388 v -14.62677 z"
           id="path5863"
           inkscape:connector-curvature="0"
           sodipodi:nodetypes="ccccccccccccc" />
        <path
           sodipodi:nodetypes="ccccccccccccc"
           inkscape:connector-curvature="0"
           id="path5865"
           d="m 838.10293,897.43118 v 16.5985 l -3.20408,2.95762 v 13.18596 h -4.92932 v -13.06275 l -1.60203,-3.08081 v -16.59852 h 2.03333 v 14.62677 h 5.48388 v -14.62677 z"
           style="fill:#41413e;fill-opacity:1;stroke:none;stroke-width:0.26458332px;stroke-linecap:butt;stroke-linejoin:miter;stroke-opacity:1" />
        <path
           inkscape:connector-curvature="0"
           style="fill:#e8e2d4;fill-opacity:1;stroke:none;stroke-width:0.99999994px;stroke-linecap:butt;stroke-linejoin:miter;stroke-opacity:1"
           d="m 3078.6543,2804.502 -13.3594,12.705 v 440.3594 c 0,0 -3e-4,47.373 54.9102,47.3731 54.9105,0 54.9101,-47.3731 54.9101,-47.3731 V 2817.207 l -15.7422,-12.705 z"
           transform="scale(0.26458333)"
           id="path5867" />
        <path
           inkscape:connector-curvature="0"
           style="opacity:1;fill:#2c2c2a;fill-opacity:1;stroke:none;stroke-width:1.88976383;stroke-linecap:round;stroke-linejoin:round;stroke-miterlimit:4;stroke-dasharray:none;stroke-dashoffset:0;stroke-opacity:1"
           d="m 3113.7832,2804.502 v 108.4668 a 13.631497,13.631497 0 0 0 -5.4219,10.8652 13.631497,13.631497 0 0 0 13.6309,13.6328 13.631497,13.631497 0 0 0 13.6328,-13.6328 13.631497,13.631497 0 0 0 -5.4219,-10.8594 V 2804.502 Z"
           id="path5869"
           transform="scale(0.26458333)" />
      </g>
      <g
         style="filter:url(#filter5880)"
         id="g5885"
         transform="rotate(-17.222121,1555.2247,1454.2602)">
        <path
           sodipodi:nodetypes="ccccccc"
           inkscape:connector-curvature="0"
           id="path5873"
           d="m 814.56062,742.02426 h 21.35671 l 11.95423,9.96646 v 145.30815 h -44.9213 V 751.99072 Z"
           style="fill:#615233;fill-opacity:1;stroke:none;stroke-width:0.26458332px;stroke-linecap:butt;stroke-linejoin:miter;stroke-opacity:1" />
        <path
           inkscape:connector-curvature="0"
           id="path5875"
           d="m 802.95024,897.29886 v 33.51043 h 44.9213 v -33.51043"
           style="fill:#2c2c2a;fill-opacity:1;stroke:none;stroke-width:0.26458332px;stroke-linecap:butt;stroke-linejoin:miter;stroke-opacity:1" />
        <path
           sodipodi:nodetypes="ccccccccccccc"
           inkscape:connector-curvature="0"
           id="path5877"
           d="m 814.07991,897.43118 v 16.5985 l 3.20408,2.95762 v 13.18596 h 4.92932 v -13.06275 l 1.60203,-3.08081 v -16.59852 h -2.03333 v 14.62677 h -5.48388 v -14.62677 z"
           style="fill:#41413e;fill-opacity:1;stroke:none;stroke-width:0.26458332px;stroke-linecap:butt;stroke-linejoin:miter;stroke-opacity:1" />
        <path
           style="fill:#41413e;fill-opacity:1;stroke:none;stroke-width:0.26458332px;stroke-linecap:butt;stroke-linejoin:miter;stroke-opacity:1"
           d="m 838.10293,897.43118 v 16.5985 l -3.20408,2.95762 v 13.18596 h -4.92932 v -13.06275 l -1.60203,-3.08081 v -16.59852 h 2.03333 v 14.62677 h 5.48388 v -14.62677 z"
           id="path5879"
           inkscape:connector-curvature="0"
           sodipodi:nodetypes="ccccccccccccc" />
        <path
           id="path5881"
           transform="scale(0.26458333)"
           d="m 3078.6543,2804.502 -13.3594,12.705 v 440.3594 c 0,0 -3e-4,47.373 54.9102,47.3731 54.9105,0 54.9101,-47.3731 54.9101,-47.3731 V 2817.207 l -15.7422,-12.705 z"
           style="fill:#e8e2d4;fill-opacity:1;stroke:none;stroke-width:0.99999994px;stroke-linecap:butt;stroke-linejoin:miter;stroke-opacity:1"
           inkscape:connector-curvature="0" />
        <path
           transform="scale(0.26458333)"
           id="path5883"
           d="m 3113.7832,2804.502 v 108.4668 a 13.631497,13.631497 0 0 0 -5.4219,10.8652 13.631497,13.631497 0 0 0 13.6309,13.6328 13.631497,13.631497 0 0 0 13.6328,-13.6328 13.631497,13.631497 0 0 0 -5.4219,-10.8594 V 2804.502 Z"
           style="opacity:1;fill:#2c2c2a;fill-opacity:1;stroke:none;stroke-width:1.88976383;stroke-linecap:round;stroke-linejoin:round;stroke-miterlimit:4;stroke-dasharray:none;stroke-dashoffset:0;stroke-opacity:1"
           inkscape:connector-curvature="0" />
      </g>
    </g>
  </g>
  <g
     inkscape:groupmode="layer"
     id="layer3"
     inkscape:label="Layer 2"
     style="display:inline"
     transform="translate(-185.78088,-399.47841)" />
</svg>
