<svg xmlns="http://www.w3.org/2000/svg" width="50mm" height="50mm" viewBox="0 0 50 50"><defs><filter id="a" color-interpolation-filters="sRGB"><feFlood flood-opacity=".498" flood-color="#000" result="flood"/><feComposite in="flood" in2="SourceGraphic" operator="in" result="composite1"/><feGaussianBlur in="composite1" stdDeviation="1" result="blur"/><feOffset dx="2" dy="2" result="offset"/><feComposite in="SourceGraphic" in2="offset" result="composite2"/></filter></defs><g transform="matrix(.16825 .0755 -.0755 .16825 12.183 -158.604)" filter="url(#a)"><path d="M489.762 794.592h50.175v137.74h-50.175z" fill="#a9e6f3"/><path d="M489.762 932.332v38.35h50.175v-38.35" fill="#c1c5c6"/><path d="M489.762 794.592v-26.366L502.545 758h24.449l12.943 10.226v26.366" fill="#e4e6e7"/><path d="M500.89 932.332v19.477h5.344v18.874h2.546v-21.785h-5.31v-16.566zM517.244 932.332v18.57h3.392v19.78h1.677v-19.78h5.215v-18.57h-1.378v17.255h-7.5v-17.255z" fill="#f0f5f6"/><rect ry="0" y="758.132" x="510.613" height="11.39" width="6.927" fill="#f7e9d4"/><rect width="6.81" height="17.26" x="510.671" y="774.467" ry="0" fill="#f2dbb8"/></g><g transform="matrix(.17621 .0544 -.0544 .17621 -14.174 -155.86)" filter="url(#a)"><path d="M489.762 794.592h50.175v137.74h-50.175z" fill="#a9e6f3"/><path d="M489.762 932.332v38.35h50.175v-38.35" fill="#c1c5c6"/><path d="M489.762 794.592v-26.366L502.545 758h24.449l12.943 10.226v26.366" fill="#e4e6e7"/><path d="M500.89 932.332v19.477h5.344v18.874h2.546v-21.785h-5.31v-16.566zM517.244 932.332v18.57h3.392v19.78h1.677v-19.78h5.215v-18.57h-1.378v17.255h-7.5v-17.255z" fill="#f0f5f6"/><rect width="6.927" height="11.39" x="510.613" y="758.132" ry="0" fill="#f7e9d4"/><rect ry="0" y="774.467" x="510.671" height="17.26" width="6.81" fill="#f2dbb8"/></g><g transform="matrix(.18372 .01602 -.01602 .18372 -56.8 -143.118)" filter="url(#a)"><path d="M489.762 794.592h50.175v137.74h-50.175z" fill="#a9e6f3"/><path d="M489.762 932.332v38.35h50.175v-38.35" fill="#c1c5c6"/><path d="M489.762 794.592v-26.366L502.545 758h24.449l12.943 10.226v26.366" fill="#e4e6e7"/><path d="M500.89 932.332v19.477h5.344v18.874h2.546v-21.785h-5.31v-16.566zM517.244 932.332v18.57h3.392v19.78h1.677v-19.78h5.215v-18.57h-1.378v17.255h-7.5v-17.255z" fill="#f0f5f6"/><rect ry="0" y="758.132" x="510.613" height="11.39" width="6.927" fill="#f7e9d4"/><rect width="6.81" height="17.26" x="510.671" y="774.467" ry="0" fill="#f2dbb8"/></g><g transform="matrix(.18379 -.01518 .01518 .18379 -89.47 -126.725)" filter="url(#a)"><path d="M489.762 794.592h50.175v137.74h-50.175z" fill="#a9e6f3"/><path d="M489.762 932.332v38.35h50.175v-38.35" fill="#c1c5c6"/><path d="M489.762 794.592v-26.366L502.545 758h24.449l12.943 10.226v26.366" fill="#e4e6e7"/><path d="M500.89 932.332v19.477h5.344v18.874h2.546v-21.785h-5.31v-16.566zM517.244 932.332v18.57h3.392v19.78h1.677v-19.78h5.215v-18.57h-1.378v17.255h-7.5v-17.255z" fill="#f0f5f6"/><rect ry="0" y="758.132" x="510.613" height="11.39" width="6.927" fill="#f7e9d4"/><rect width="6.81" height="17.26" x="510.671" y="774.467" ry="0" fill="#f2dbb8"/></g><g transform="scale(.18442) rotate(-15.135 -2432.42 2169.224)" filter="url(#a)"><path d="M489.762 794.592h50.175v137.74h-50.175z" fill="#a9e6f3"/><path d="M489.762 932.332v38.35h50.175v-38.35" fill="#c1c5c6"/><path d="M489.762 794.592v-26.366L502.545 758h24.449l12.943 10.226v26.366" fill="#e4e6e7"/><path d="M500.89 932.332v19.477h5.344v18.874h2.546v-21.785h-5.31v-16.566zM517.244 932.332v18.57h3.392v19.78h1.677v-19.78h5.215v-18.57h-1.378v17.255h-7.5v-17.255z" fill="#f0f5f6"/><rect width="6.927" height="11.39" x="510.613" y="758.132" ry="0" fill="#f7e9d4"/><rect ry="0" y="774.467" x="510.671" height="17.26" width="6.81" fill="#f2dbb8"/></g></svg>